<svg width="155" height="35" viewBox="0 0 155 35" fill="none" xmlns="http://www.w3.org/2000/svg">
<path fill-rule="evenodd" clip-rule="evenodd" d="M23.9449 24.1977V6.2548H33.5481C38.4761 6.2548 41.8246 8.84514 41.8246 14.2786V24.1977H37.5916V15.3526C37.5916 11.0564 36.2017 10.4878 32.9795 10.4878H28.1147V24.2609H23.9449V24.1977ZM9.85595 13.5836C0.947688 13.5836 0 13.5836 0 18.8275C0 24.0713 0.947688 24.1345 9.85595 24.1345H20.5964V13.1413C20.5964 8.21335 18.0061 6.19162 12.6358 6.19162H0V10.3614H11.3091C15.6053 10.3614 16.4898 11.5618 16.4898 14.8472V19.9647H7.01289C4.80162 19.9647 4.29618 19.9647 4.29618 18.3852C4.29618 16.8057 4.80162 16.8057 7.01289 16.8057H13.4572V13.6468H9.85595V13.5836ZM77.205 19.9647C72.4665 19.9647 72.5297 19.5856 72.5297 16.6162V0.821386H68.2967V17.6902C68.2967 23.1236 71.6452 24.1977 76.5732 24.1977H77.1418V19.9647H77.205ZM54.65 13.5836C45.7417 13.5836 44.794 13.6468 44.794 18.8906C44.794 24.1345 45.7417 24.1977 54.65 24.1977H65.3905V14.5313C65.3905 9.60329 62.8001 6.2548 57.4299 6.2548H44.794V10.4246H56.1031C60.3993 10.4246 61.2838 11.625 61.2838 14.9103V20.0279H51.7438C49.5325 20.0279 49.027 20.0279 49.027 18.4484C49.027 16.8689 49.5325 16.8689 51.7438 16.8689H58.188V13.7099H54.65V13.5836ZM133.498 16.7425C139.752 16.7425 141.016 16.6794 141.016 11.4355C141.016 6.12844 138.552 6.12844 133.498 6.12844H128.696C121.367 6.12844 120.167 8.52925 120.167 13.6468V17.6902C120.167 22.8077 121.367 24.0713 127.496 24.0713H137.857V19.9015H127.432C124.4 19.9015 124.4 19.9015 124.4 16.8057V13.5836C124.4 10.2983 125.032 10.2983 128.57 10.2983H134.003C136.214 10.2983 136.72 10.2983 136.72 11.9409C136.72 13.5204 136.214 13.5836 134.003 13.5836H127.369V16.7425H133.498ZM91.9889 19.9647H87.5032C84.2179 19.9647 83.0806 19.5856 83.0806 15.2894V6.19162H78.8476V16.1108C78.8476 21.5442 82.1961 24.1345 87.1241 24.1345H91.9889V25.7772C91.9889 29.8838 91.0412 30.0102 88.135 30.0102H86.1132V34.18H87.2505H87.8191C92.747 34.18 96.0955 32.4742 96.0955 27.0408V6.19162H91.9257V19.9647H91.9889ZM106.52 16.7425C106.52 16.7425 107.973 16.7425 109.805 16.7425C111.385 16.7425 112.964 16.7425 112.964 18.322C112.964 19.712 111.385 19.9015 109.805 19.9015H99.6336V24.0713H109.805C112.964 24.0713 117.134 24.0082 117.134 18.8275C117.134 13.5836 113.028 13.5836 109.805 13.5836C109.805 13.5836 108.352 13.5836 106.52 13.5836C104.941 13.5836 103.361 13.5836 103.361 12.0041C103.361 10.6142 104.941 10.4246 106.52 10.4246H116.692V6.19162H106.52C103.361 6.19162 99.1913 6.2548 99.1913 11.4355C99.1913 16.7425 103.298 16.7425 106.52 16.7425ZM154.726 12.3832V10.1087H148.282C147.081 10.1087 146.955 10.1087 146.955 9.54011V9.03468C146.955 8.46607 148.092 8.08699 148.977 7.89746C153.905 6.76023 154.726 6.82341 154.726 4.04352C154.726 -0.0631228 150.998 5.62966e-05 149.04 5.62966e-05H144.238V2.77994H150.303C151.504 2.84312 151.946 3.53809 151.946 4.16988C151.946 4.80168 150.998 5.05439 149.419 5.43347C144.238 6.69705 144.238 7.64474 144.238 9.09786C144.238 9.16104 144.238 10.2351 144.238 10.6773C144.238 11.8777 144.68 12.32 146.639 12.32H154.726V12.3832Z" fill="#172A64"/>
</svg>
