<svg width="100" height="32" viewBox="0 0 100 32" fill="none" xmlns="http://www.w3.org/2000/svg"><path d="m7.268 17.941 3.318-7.776c.04-.088.078-.103.12-.103.043 0 .078.014.117.1l3.392 7.78H7.268Zm4.25-13.697c-.233-.544-.47-.626-.716-.626-.247 0-.48.086-.717.626L0 27.256h3.265l2.792-6.498h9.334l2.721 6.498h3.3L11.519 4.244Zm55.265 23.012-4.43-22.991c-.117-.6-.367-.728-.558-.728-.236 0-.445.202-.614.6L54.02 20.762 46.856 4.137c-.169-.398-.377-.6-.617-.6-.19 0-.441.127-.558.728l-4.43 22.99h3.057l2.669-14.092c.06-.277.18-.337.271-.337.089 0 .166.057.237.163l6.139 14.27h.787l6.138-14.266c.07-.11.148-.167.237-.167.088 0 .208.06.268.323l2.672 14.11h3.057v-.003ZM32.486 13.604l-1.708-.668-.177-.071c-1.73-.69-3.88-1.63-3.88-3.385 0-2.054 2.186-3.428 4.212-3.428s2.71.472 4.218 1.989c.173.174.607.44 1.038.39.36-.038.667-.23.748-.283.075-.036.286-.15.509-.42.367-.44.243-1.112.014-1.406-1.529-1.993-3.823-3.09-6.46-3.09-4.24 0-7.438 2.706-7.438 6.155 0 3.45 2.838 5.027 5.75 6.203l1.572.607c2.312.938 4.705 1.957 4.705 4.49 0 2.533-2.683 4.139-5.168 4.139-2.485 0-4.554-1.67-4.938-4.06l-.05-.352H22.15c.025.72.128 1.136.128 1.136.857 3.702 4.055 6.096 8.214 6.096 4.67 0 8.327-3.207 8.327-7.3 0-3.858-3.128-5.502-6.333-6.75M99.618 9.05a.38.38 0 0 0-.38.383v13.134a.38.38 0 1 0 .762 0V9.433a.38.38 0 0 0-.382-.383Zm-27.438 0a.38.38 0 0 0-.381.383v13.134a.38.38 0 1 0 .762 0V9.433a.38.38 0 0 0-.38-.383Zm1.398-1.393 11.303-6.565a.389.389 0 0 0 .141-.525.383.383 0 0 0-.522-.142L73.197 6.993a.384.384 0 0 0 .381.668v-.004ZM98.221 24.34l-11.303 6.567a.389.389 0 0 0-.14.526.383.383 0 0 0 .522.142l11.303-6.568a.384.384 0 0 0-.381-.668Zm-13.339 6.567L73.579 24.34a.38.38 0 0 0-.523.142.386.386 0 0 0 .141.526L84.5 31.575a.38.38 0 0 0 .523-.142.386.386 0 0 0-.141-.526Zm13.72-23.914L87.295.425a.38.38 0 0 0-.522.142.386.386 0 0 0 .141.525l11.303 6.569a.38.38 0 0 0 .523-.142.386.386 0 0 0-.142-.526h.004Zm-2.03 15.652a.439.439 0 0 0 .378-.658l-5.147-8.973L97.68 9.6a.384.384 0 0 0-.381-.668l-5.877 3.414-5.143-8.966a.433.433 0 0 0-.752 0l-5.143 8.966-5.878-3.413a.38.38 0 0 0-.522.142.386.386 0 0 0 .141.525l5.877 3.414-5.146 8.973a.439.439 0 0 0 .378.658h10.293v6.824a.38.38 0 1 0 .762 0v-6.824h10.294-.011Zm-8.666-7.809a.384.384 0 0 0 .522.143l2.687-1.563 4.455 7.765-9.291-5.4V4.982l4.455 7.766-2.687 1.563a.389.389 0 0 0-.141.525Zm-4.155-.525-2.686-1.56 4.448-7.754v10.792l-9.288 5.396 4.455-7.766 2.686 1.56a.38.38 0 0 0 .523-.143.386.386 0 0 0-.141-.525h.003Zm-7.11 7.517 9.256-5.379 9.256 5.379h-8.878v-3.109a.38.38 0 1 0-.762 0v3.109h-8.875.004Z" fill="currentColor"></path></svg>
