<?xml version="1.0" encoding="UTF-8"?>
<svg width="140px" height="47px" viewBox="0 0 140 47" version="1.1" xmlns="http://www.w3.org/2000/svg" xmlns:xlink="http://www.w3.org/1999/xlink">
    <title>cinia-logo@1x</title>
    <g id="cinia-logo" stroke="none" stroke-width="1" fill="none" fill-rule="evenodd">
        <g id="Cinia_logo_red-blue_RGB" fill-rule="nonzero">
            <path d="M140,36.7055418 L140,24.2224979 C140,21.6517783 139.246943,19.7692308 137.737513,18.5814723 C136.228083,17.3904053 134.284069,16.7981803 131.898837,16.7981803 C128.588042,16.7981803 125.645482,17.7311828 123.06784,19.6004963 L125.373453,22.9321754 C125.373453,22.9321754 127.135008,22.108354 128.196586,21.7278743 C129.254846,21.3540116 130.256709,21.165426 131.205494,21.165426 C133.41822,21.165426 134.526241,22.2076096 134.526241,24.2952854 L134.526241,24.4044665 L130.439168,24.4044665 C127.907969,24.4044665 125.914194,24.9007444 124.454525,25.8966088 C122.994856,26.8924731 122.265022,28.3879239 122.265022,30.3895782 C122.265022,32.3912324 122.971634,33.9925558 124.381542,35.1935484 C125.791449,36.3945409 127.536417,36.993383 129.616446,36.993383 C131.696474,36.993383 133.441442,36.1100083 134.854667,34.3366419 L135.027173,36.7022333 L140,36.7022333 L140,36.7055418 L140,36.7055418 Z M134.48975,29.2448304 C134.48975,30.2406948 134.118197,31.0347395 133.375093,31.6269644 C132.631989,32.2224979 131.772775,32.5169562 130.800768,32.5169562 C129.828761,32.5169562 129.079022,32.3316791 128.558185,31.9545079 C128.037349,31.5773366 127.771955,31.038048 127.771955,30.3333333 C127.771955,28.9768404 128.866706,28.2985939 131.05621,28.2985939 L134.48975,28.2985939 L134.48975,29.2448304 Z M117.683651,14.4789082 C118.304011,13.8602151 118.615849,13.1025641 118.615849,12.2059553 C118.615849,11.306038 118.307328,10.5483871 117.683651,9.92969396 C117.063292,9.31100083 116.303601,9 115.40126,9 C114.502236,9 113.742545,9.31100083 113.122186,9.92969396 C112.501826,10.5483871 112.189988,11.306038 112.189988,12.2059553 C112.189988,13.1025641 112.501826,13.8635236 113.122186,14.4789082 C113.742545,15.0976013 114.502236,15.4086022 115.40126,15.4086022 C116.303601,15.4052936 117.06661,15.0942928 117.683651,14.4789082 M102.231065,36.7055418 L107.704823,36.7055418 L107.704823,24.8047974 C107.704823,22.3796526 107.004846,20.4375517 105.608208,18.9818031 C104.208253,17.5260546 102.476554,16.7981803 100.406478,16.7981803 C98.3364023,16.7981803 96.4786417,17.6385443 94.8232444,19.3093466 L94.8232444,17.1290323 L89.3494856,18.2936311 L89.3494856,36.7088503 L94.8232444,36.7088503 L94.8232444,25.7907361 C94.8232444,24.2622002 95.2312882,23.1042184 96.0440584,22.3134822 C96.8568287,21.5260546 97.8122484,21.1323408 98.9103176,21.1323408 C101.123043,21.1323408 102.231065,22.6377171 102.231065,25.6451613 L102.231065,36.7055418 L102.231065,36.7055418 Z M83.7098554,14.4789082 C84.3302147,13.8602151 84.6420531,13.1025641 84.6420531,12.2059553 C84.6420531,11.306038 84.3302147,10.5483871 83.7098554,9.92969396 C83.089496,9.31100083 82.3298047,9 81.4274638,9 C80.5284404,9 79.7654316,9.31100083 79.1483897,9.92969396 C78.5280304,10.5483871 78.216192,11.306038 78.216192,12.2059553 C78.216192,13.1025641 78.5280304,13.8635236 79.1483897,14.4789082 C79.7687491,15.0976013 80.5284404,15.4086022 81.4274638,15.4086022 C82.3298047,15.4052936 83.0928135,15.0942928 83.7098554,14.4789082 M71.3590652,19.4549214 L74.8987625,15.4516129 C72.0756299,12.2754342 68.5757418,10.6873449 64.3891457,10.6873449 C60.6437677,10.6873449 57.4756225,11.9478908 54.88471,14.4722911 C52.2937975,16.9966915 51,20.1430935 51,23.9148056 C51,27.6898263 52.2705755,30.8130687 54.8117266,33.2878412 C57.356195,35.7626137 60.5873714,37 64.5185254,37 C68.446362,37 71.8566796,35.375517 74.7527956,32.1232423 L71.1036231,28.3746898 C69.3287983,30.5814723 67.0397719,31.6865178 64.2431788,31.6865178 C62.1996422,31.6865178 60.4579917,30.9718776 59.0248621,29.5392887 C57.5884151,28.1100083 56.8718503,26.2109181 56.8718503,23.8453267 C56.8718503,21.4797353 57.6348591,19.6004963 59.1509244,18.2043011 C60.6736246,16.8114144 62.5015283,16.1133168 64.6445877,16.1133168 C67.318436,16.1066998 69.5577009,17.2216708 71.3590652,19.4549214 M84.1676607,17.1257237 L78.6939019,18.2903226 L78.6939019,36.7088503 L84.1676607,36.7088503 L84.1676607,17.1257237 Z M118.141457,17.1257237 L112.667698,18.2903226 L112.667698,36.7088503 L118.141457,36.7088503 L118.141457,17.1257237 Z" id="Shape" fill="#0C2340"></path>
            <g id="Group-4">
                <path d="M23.2528926,40.7933333 C28.0033058,40.7933333 32.3041322,38.85 35.4181818,35.7133333 L30.0363636,30.2866667 C28.3008264,32.0366667 25.9008264,33.12 23.2528926,33.12 C17.953719,33.12 13.6595041,28.79 13.6595041,23.4466667 L6.04958571,23.4466667 C6.04628099,33.0233333 13.7487603,40.7933333 23.2528926,40.7933333" id="Path" fill="#F4364C"></path>
                <path d="M6.04628099,23.4433333 L13.6561983,23.4433333 C13.6561983,18.1 17.9504132,13.77 23.2495868,13.77 C25.8975207,13.77 28.2975207,14.8533333 30.0330579,16.6033333 L35.414876,11.1766667 C32.3008264,8.03666667 28,6.09666667 23.2495868,6.09666667 C13.7487603,6.09666667 6.04628099,13.8633333 6.04628099,23.4433333" id="Path" fill="#A50034"></path>
                <path d="M6.04628099,23.4433333 L-9.39560642e-15,23.4433333 C-9.39560642e-15,36.39 10.4099174,46.8866667 23.2495868,46.8866667 C29.6694215,46.8866667 35.4809917,44.2633333 39.6892562,40.02 L35.414876,35.71 C32.3008264,38.85 28,40.79 23.2495868,40.79 C13.7487603,40.7933333 6.04628099,33.0233333 6.04628099,23.4433333" id="Path" fill="#A50034"></path>
                <path d="M6.04628099,23.4433333 L-9.39560642e-15,23.4433333 C-9.39560642e-15,10.4966667 10.4099174,-1.18423789e-14 23.2495868,-1.18423789e-14 C29.6694215,-1.18423789e-14 35.4809917,2.62333333 39.6892562,6.86666667 L35.414876,11.1766667 C32.3008264,8.03666667 28,6.09666667 23.2495868,6.09666667 C13.7487603,6.09666667 6.04628099,13.8633333 6.04628099,23.4433333" id="Path" fill="#F4364C"></path>
            </g>
        </g>
    </g>
</svg>