<svg id="Layer_1" data-name="Layer 1" xmlns="http://www.w3.org/2000/svg" viewBox="0 0 157 63.3">
  <defs>
    <style>
      .cls-1 {
        fill: #244c91;
      }
    </style>
  </defs>
  <title>Insta-logo-155px</title>
  <g>
    <path class="cls-1" d="M69.13,38.82c1.5.19,2,.89,2,1.58,0,1.12-.94,1.91-4.43,1.91a10.76,10.76,0,0,1-3.8-.5,1.8,1.8,0,0,1-1.19-1.68H48.26c0,6.91,9.42,7.9,18,7.9,12.56,0,18.18-2.7,18.18-8.42,0-4-3.49-6.16-9.11-6.85L62,31.12c-1.11-.13-1.47-.56-1.47-1.22,0-1,1.15-1.68,4.48-1.68a10.61,10.61,0,0,1,3.48.49c1,.33,1.71.93,1.71,1.88h13c-.4-5-5.58-7.7-18.17-7.7-9.19,0-16.35,1.65-16.35,7.73,0,3.29,2.25,5.93,7.72,6.62Z"/>
    <path class="cls-1" d="M112.57,47.29h13.66L129,41.82h10.56l2.78,5.47H156l-13.84-23.6H126.41Zm25.31-9.13h-7.16l3.52-7.33h.09Z"/>
    <path class="cls-1" d="M1,11.09A10.13,10.13,0,1,1,11.13,21.22,10.12,10.12,0,0,1,1,11.09"/>
    <polygon class="cls-1" points="18.27 47.29 21.01 47.29 21.01 32.02 30.96 47.29 44.23 47.29 44.23 23.76 30.15 23.76 30.15 38.33 20.22 23.76 18.27 23.76 18.27 47.29"/>
    <rect class="cls-1" x="6.38" y="23.73" width="9.23" height="23.57"/>
    <polygon class="cls-1" points="94.14 47.29 108.25 47.29 108.25 27.37 120.3 27.37 120.3 23.71 82.19 23.71 82.19 27.37 94.14 27.36 94.14 47.29"/>
  </g>
</svg>
