<?xml version="1.0" encoding="utf-8"?>
<!-- Generator: Adobe Illustrator 22.1.0, SVG Export Plug-In . SVG Version: 6.00 Build 0)  -->
<svg version="1.1" id="Layer_1" xmlns="http://www.w3.org/2000/svg" xmlns:xlink="http://www.w3.org/1999/xlink" x="0px" y="0px"
	 viewBox="0 0 841.9 179.6" style="enable-background:new 0 0 841.9 179.6;" xml:space="preserve">
<style type="text/css">
	.st0{fill:#3AA6C4;}
</style>
<path class="st0" d="M124.1,154.5h-20V115c0-15.7-12.8-28.6-28.6-28.6c-15.7,0-28.6,12.8-28.6,28.6v39.6h-20V115
	c0-26.8,21.8-48.6,48.6-48.6c26.8,0,48.6,21.8,48.6,48.6V154.5z"/>
<path class="st0" d="M361.7,154.5h-20V115c0-26.8,21.8-48.6,48.6-48.6v20c-15.7,0-28.6,12.8-28.6,28.6V154.5z"/>
<path class="st0" d="M614,157.5c-26.8,0-48.6-21.8-48.6-48.6V29.4h20V109c0,15.7,12.8,28.6,28.6,28.6V157.5z"/>
<path class="st0" d="M283.3,157.5c-24.3,0-44-21.8-44-48.6V69.4h20V109c0,15.7,10.8,28.6,24,28.6s24-12.8,24-28.6V69.4h20V109
	C327.3,135.7,307.5,157.5,283.3,157.5z"/>
<path class="st0" d="M664.6,157.5c-24.3,0-44-21.8-44-48.6V69.4h20V109c0,15.7,10.8,28.6,24,28.6s24-12.8,24-28.6V69.4h20V109
	C708.6,135.7,688.9,157.5,664.6,157.5z"/>
<path class="st0" d="M442.2,157.4c-25.1,0-45.4-20.4-45.4-45.4s20.4-45.4,45.4-45.4s45.4,20.4,45.4,45.4S467.2,157.4,442.2,157.4z
	 M442.2,86.5c-14,0-25.4,11.4-25.4,25.4s11.4,25.4,25.4,25.4s25.4-11.4,25.4-25.4S456.2,86.5,442.2,86.5z"/>
<path class="st0" d="M182.9,157.4c-25.1,0-45.4-20.4-45.4-45.4s20.4-45.4,45.4-45.4c19,0,36.1,12,42.6,29.7l3.2,8.6l-8.3,3.9
	c-7.6,3.6-36.5,14.7-55.5,21.2c4.6,4.6,10.9,7.4,17.9,7.4c3.2,0,6.4-0.6,9.4-1.8c1.6-0.6,3.2-1.5,4.7-2.4c1.9-1.2,3.6-2.7,5.1-4.5
	l15,13.2c-2.7,3-5.7,5.7-9.1,7.9c-2.6,1.7-5.4,3.2-8.4,4.4C194.3,156.3,188.6,157.4,182.9,157.4z M182.9,86.5
	c-13.9,0-25.1,11.1-25.4,24.9c13.1-4.5,32.1-11.6,44.3-16.5C197,89.7,190.2,86.5,182.9,86.5z"/>
<path class="st0" d="M548.9,43.4v-20c-26.8,0-48.6,21.8-48.6,48.6v82.6h20v-65h26.4v-20h-26.2C521.7,54.9,533.9,43.4,548.9,43.4z"/>
<polygon class="st0" points="767.4,97.2 744.2,69 719.7,69 719.5,69.2 755,112.3 720.2,154.7 745,154.7 767.4,127.4 789.7,154.7 
	814.6,154.7 779.8,112.3 815.2,69.2 815,69 790.5,69 "/>
<path class="st0" d="M124.1,154.5h-20V115c0-15.7-12.8-28.6-28.6-28.6c-15.7,0-28.6,12.8-28.6,28.6v39.6h-20V115
	c0-26.8,21.8-48.6,48.6-48.6c26.8,0,48.6,21.8,48.6,48.6V154.5z"/>
<path class="st0" d="M361.7,154.5h-20V115c0-26.8,21.8-48.6,48.6-48.6v20c-15.7,0-28.6,12.8-28.6,28.6V154.5z"/>
<path class="st0" d="M614,157.5c-26.8,0-48.6-21.8-48.6-48.6V29.4h20V109c0,15.7,12.8,28.6,28.6,28.6V157.5z"/>
<path class="st0" d="M283.3,157.5c-24.3,0-44-21.8-44-48.6V69.4h20V109c0,15.7,10.8,28.6,24,28.6s24-12.8,24-28.6V69.4h20V109
	C327.3,135.7,307.5,157.5,283.3,157.5z"/>
<path class="st0" d="M664.6,157.5c-24.3,0-44-21.8-44-48.6V69.4h20V109c0,15.7,10.8,28.6,24,28.6s24-12.8,24-28.6V69.4h20V109
	C708.6,135.7,688.9,157.5,664.6,157.5z"/>
<path class="st0" d="M442.2,157.4c-25.1,0-45.4-20.4-45.4-45.4s20.4-45.4,45.4-45.4s45.4,20.4,45.4,45.4S467.2,157.4,442.2,157.4z
	 M442.2,86.5c-14,0-25.4,11.4-25.4,25.4s11.4,25.4,25.4,25.4s25.4-11.4,25.4-25.4S456.2,86.5,442.2,86.5z"/>
<path class="st0" d="M182.9,157.4c-25.1,0-45.4-20.4-45.4-45.4s20.4-45.4,45.4-45.4c19,0,36.1,12,42.6,29.7l3.2,8.6l-8.3,3.9
	c-7.6,3.6-36.5,14.7-55.5,21.2c4.6,4.6,10.9,7.4,17.9,7.4c3.2,0,6.4-0.6,9.4-1.8c1.6-0.6,3.2-1.5,4.7-2.4c1.9-1.2,3.6-2.7,5.1-4.5
	l15,13.2c-2.7,3-5.7,5.7-9.1,7.9c-2.6,1.7-5.4,3.2-8.4,4.4C194.3,156.3,188.6,157.4,182.9,157.4z M182.9,86.5
	c-13.9,0-25.1,11.1-25.4,24.9c13.1-4.5,32.1-11.6,44.3-16.5C197,89.7,190.2,86.5,182.9,86.5z"/>
<path class="st0" d="M548.9,43.4v-20c-26.8,0-48.6,21.8-48.6,48.6v82.6h20v-65h26.4v-20h-26.2C521.7,54.9,533.9,43.4,548.9,43.4z"/>
<polygon class="st0" points="767.4,97.2 744.2,69 719.7,69 719.5,69.2 755,112.3 720.2,154.7 745,154.7 767.4,127.4 789.7,154.7 
	814.6,154.7 779.8,112.3 815.2,69.2 815,69 790.5,69 "/>
<g>
	<path class="st0" d="M124.1,154.5h-20V115c0-15.7-12.8-28.6-28.6-28.6c-15.7,0-28.6,12.8-28.6,28.6v39.6h-20V115
		c0-26.8,21.8-48.6,48.6-48.6c26.8,0,48.6,21.8,48.6,48.6V154.5z"/>
	<path class="st0" d="M361.7,154.5h-20V115c0-26.8,21.8-48.6,48.6-48.6v20c-15.7,0-28.6,12.8-28.6,28.6V154.5z"/>
	<path class="st0" d="M614,157.5c-26.8,0-48.6-21.8-48.6-48.6V29.4h20V109c0,15.7,12.8,28.6,28.6,28.6V157.5z"/>
	<path class="st0" d="M283.3,157.5c-24.3,0-44-21.8-44-48.6V69.4h20V109c0,15.7,10.8,28.6,24,28.6s24-12.8,24-28.6V69.4h20V109
		C327.3,135.7,307.5,157.5,283.3,157.5z"/>
	<path class="st0" d="M664.6,157.5c-24.3,0-44-21.8-44-48.6V69.4h20V109c0,15.7,10.8,28.6,24,28.6s24-12.8,24-28.6V69.4h20V109
		C708.6,135.7,688.9,157.5,664.6,157.5z"/>
	<path class="st0" d="M442.2,157.4c-25.1,0-45.4-20.4-45.4-45.4s20.4-45.4,45.4-45.4s45.4,20.4,45.4,45.4S467.2,157.4,442.2,157.4z
		 M442.2,86.5c-14,0-25.4,11.4-25.4,25.4s11.4,25.4,25.4,25.4s25.4-11.4,25.4-25.4S456.2,86.5,442.2,86.5z"/>
	<path class="st0" d="M182.9,157.4c-25.1,0-45.4-20.4-45.4-45.4s20.4-45.4,45.4-45.4c19,0,36.1,12,42.6,29.7l3.2,8.6l-8.3,3.9
		c-7.6,3.6-36.5,14.7-55.5,21.2c4.6,4.6,10.9,7.4,17.9,7.4c3.2,0,6.4-0.6,9.4-1.8c1.6-0.6,3.2-1.5,4.7-2.4c1.9-1.2,3.6-2.7,5.1-4.5
		l15,13.2c-2.7,3-5.7,5.7-9.1,7.9c-2.6,1.7-5.4,3.2-8.4,4.4C194.3,156.3,188.6,157.4,182.9,157.4z M182.9,86.5
		c-13.9,0-25.1,11.1-25.4,24.9c13.1-4.5,32.1-11.6,44.3-16.5C197,89.7,190.2,86.5,182.9,86.5z"/>
	<path class="st0" d="M548.9,43.4v-20c-26.8,0-48.6,21.8-48.6,48.6v82.6h20v-65h26.4v-20h-26.2C521.7,54.9,533.9,43.4,548.9,43.4z"
		/>
	<polygon class="st0" points="767.4,97.2 744.2,69 719.7,69 719.5,69.2 755,112.3 720.2,154.7 745,154.7 767.4,127.4 789.7,154.7 
		814.6,154.7 779.8,112.3 815.2,69.2 815,69 790.5,69 	"/>
</g>
</svg>
