<svg xmlns="http://www.w3.org/2000/svg" width="171.496" height="27.687" viewBox="0 0 171.496 27.687"><path d="M129.23 27.276V4.623h8.773V.446h-23.282v4.175h8.968v22.655zM140.073.447h5.736v26.829h-5.736zm31.423 22.26h-11.831c-4.143-.027-4.143-5.1-4.146-9.054 0-3.615.049-8.435 4.142-8.462h11.816V.446c-6.9.04-12.43-.007-13.4 0-7.118.043-8.8 7.04-8.8 13.241 0 6.424 1.764 13.607 8.828 13.58h13.4zm-84.146 4.57L87.335.443l-8.572.023L72.5 21.488 66.146.437h-8.513v26.851h5.195V5.846l7.045 21.417h4.93l7.358-21.417v21.43zM47.583.456l-10.7 13.18V.446h-5.737v26.829h5.737V14.061c.4.505 7.215 9.038 10.308 13.212h7.9L43.789 13.846l11.3-13.39zM27.689 14.233C27.689 4.875 23.74 0 13.845 0 4.637 0 .005 4.968.002 13.834v.02c0 9.882 4.24 13.828 13.825 13.833h.036c8.809-.005 13.826-3.808 13.826-13.454zM14.04 4.29c6.142 0 7.409 5.41 7.409 9.554 0 4.679-1.267 9.943-7.409 9.943-6.727 0-7.8-6.385-7.8-9.749-.002-5.459 2.095-9.748 7.798-9.748zm87.921.356h10.69v-4.2L100.372.44c-7.118.043-9.47 7.041-9.47 13.241 0 6.424 2.435 13.607 9.5 13.58h12.249v-4.555h-10.686c-3.413-.022-4.47-3.468-4.738-6.894h15.424v-4.555H97.262c.327-3.204 1.449-6.59 4.699-6.611z" fill="#007ac2"/></svg>