<?xml version="1.0" encoding="UTF-8" standalone="no"?>
<svg
   xmlns:dc="http://purl.org/dc/elements/1.1/"
   xmlns:cc="http://creativecommons.org/ns#"
   xmlns:rdf="http://www.w3.org/1999/02/22-rdf-syntax-ns#"
   xmlns:svg="http://www.w3.org/2000/svg"
   xmlns="http://www.w3.org/2000/svg"
   viewBox="0 0 1033.886 177.1696"
   height="177.1696"
   width="1033.886"
   xml:space="preserve"
   id="svg29"
   version="1.1"><metadata
     id="metadata35"><rdf:RDF><cc:Work
         rdf:about=""><dc:format>image/svg+xml</dc:format><dc:type
           rdf:resource="http://purl.org/dc/dcmitype/StillImage" /><dc:title></dc:title></cc:Work></rdf:RDF></metadata><defs
     id="defs33"><clipPath
       id="clipPath49"
       clipPathUnits="userSpaceOnUse"><path
         id="path47"
         d="M 0,595.28 H 841.89 V 0 H 0 Z" /></clipPath></defs><g
     transform="matrix(1.3333333,0,0,-1.3333333,-47.493065,495.13385)"
     id="g37"><g
       transform="translate(55.8208,357.6187)"
       id="g39"><path
         id="path41"
         style="fill:#009b49;fill-opacity:1;fill-rule:nonzero;stroke:none"
         d="M 0,0 H -20.201 V 12.796 H 34.767 V 0 H 14.577 V -57.99 H 0 Z" /></g><g
       id="g43"><g
         clip-path="url(#clipPath49)"
         id="g45"><g
           transform="translate(157.9878,319.8198)"
           id="g51"><path
             id="path53"
             style="fill:#009b49;fill-opacity:1;fill-rule:nonzero;stroke:none"
             d="m 0,0 -5.096,12.288 c -2.086,4.994 -4.272,12.705 -4.272,12.705 0,0 -2.086,-7.711 -4.161,-12.705 L -18.636,0 Z m -9.786,51.226 h 1.251 L 23.843,-20.191 H 8.534 l -3.326,8.016 h -28.736 l -3.326,-8.016 h -14.057 z" /></g><path
           id="path55"
           style="fill:#009b49;fill-opacity:1;fill-rule:nonzero;stroke:none"
           d="m 212.683,370.415 h 14.576 v -70.786 h -14.576 z" /><g
           transform="translate(279.3491,357.6187)"
           id="g57"><path
             id="path59"
             style="fill:#009b49;fill-opacity:1;fill-rule:nonzero;stroke:none"
             d="M 0,0 H -20.191 V 12.796 H 34.768 V 0 H 14.576 V -57.99 H 0 Z" /></g><g
           transform="translate(462.8525,271.9912)"
           id="g61"><path
             id="path63"
             style="fill:#009b49;fill-opacity:1;fill-rule:nonzero;stroke:none"
             d="m 0,0 c -3.542,3.336 -8.434,9.685 -8.434,9.685 0,0 1.038,-7.813 1.038,-12.91 v -29.671 h -13.631 v 71.417 h 1.454 L 16.13,4.995 c 3.438,-3.224 8.332,-9.674 8.332,-9.674 0,0 -0.938,8.015 -0.938,12.908 v 29.662 h 13.642 v -71.409 h -1.464 z" /></g><path
           id="path65"
           style="fill:#009b49;fill-opacity:1;fill-rule:nonzero;stroke:none"
           d="m 536.078,309.882 h 14.575 v -70.787 h -14.575 z" /><g
           transform="translate(602.7354,297.0859)"
           id="g67"><path
             id="path69"
             style="fill:#009b49;fill-opacity:1;fill-rule:nonzero;stroke:none"
             d="m 0,0 h -20.191 v 12.796 h 54.96 V 0 H 14.575 V -57.991 H 0 Z" /></g><g
           transform="translate(669.1982,309.8818)"
           id="g71"><path
             id="path73"
             style="fill:#009b49;fill-opacity:1;fill-rule:nonzero;stroke:none"
             d="M 0,0 H 46.842 V -12.796 H 14.566 v -22.491 h 28.42 v -12.491 h -28.42 v -10.203 h 33.73 V -70.787 H 0 Z" /></g><g
           transform="translate(773.0313,251.9004)"
           id="g75"><path
             id="path77"
             style="fill:#009b49;fill-opacity:1;fill-rule:nonzero;stroke:none"
             d="M 0,0 C 15.717,0 22.907,9.369 22.907,22.594 22.907,35.807 15.717,45.186 0,45.186 H -6.458 V 0 Z M -21.022,57.981 H 0.732 c 21.759,0 37.271,-14.463 37.271,-35.387 0,-20.925 -15.408,-35.4 -37.271,-35.4 h -21.754 z" /></g><g
           transform="translate(401.7065,335.0264)"
           id="g79"><path
             id="path81"
             style="fill:#009b49;fill-opacity:1;fill-rule:nonzero;stroke:none"
             d="m 0,0 c 0,13.214 -8.737,23.314 -21.646,23.314 -12.907,0 -21.655,-10.1 -21.655,-23.314 0,-13.224 8.748,-23.324 21.655,-23.324 C -8.737,-23.324 0,-13.224 0,0 m -58.295,0 c 0,20.924 16.245,36.324 36.649,36.324 20.406,0 36.64,-15.4 36.64,-36.324 0,-20.923 -16.234,-36.334 -36.64,-36.334 -20.404,0 -36.649,15.411 -36.649,36.334" /></g><g
           transform="translate(408.8579,285.2051)"
           id="g83"><path
             id="path85"
             style="fill:#009b49;fill-opacity:1;fill-rule:nonzero;stroke:none"
             d="m 0,0 v -45.173 h -14.576 v 44.339 c 0,10.313 -4.476,14.271 -14.159,14.271 -9.572,0 -13.947,-3.958 -13.947,-14.271 V -45.173 H -57.257 V 0 c 0,17.912 12.389,26.548 28.522,26.548 C -12.39,26.548 0,17.912 0,0" /></g></g></g></g></svg>