<svg xmlns="http://www.w3.org/2000/svg" viewBox="0 0 253.97 71.11"><defs><style>.cls-1{fill:#0d2d6c;}.cls-2,.cls-3{fill:#fdb515;}.cls-3{fill-rule:evenodd;}.cls-4{fill:none;}</style></defs><g id="Layer_2" data-name="Layer 2"><g id="Layer_1-2" data-name="Layer 1"><rect class="cls-1" x="10.16" y="10.16" width="50.79" height="50.79"/><path class="cls-2" d="M42.85,30.82l-4-.24c-.14-.51-.29-1.06-.41-1.58a3,3,0,0,1,.13-2.43,7.85,7.85,0,0,1,1.1-1.7,7,7,0,0,1,1.22-1.22A2.87,2.87,0,0,1,43.24,23c.71,0,1.7,0,2.34,0l-2,2.12-3.88,0,.91,3.7s.23.89.5,1.9l.57-.64,6.93-7.33L46,20.36l-1.34-5.55,3.35,3,.77,4.72.85-.9a1.15,1.15,0,1,1,.62.57l-.81.94,4.78.28,3.35,3-5.66-.77-2.61-2.36-6.48,7.48"/><path class="cls-2" d="M43.32,33.68c-.13-.18-.65-.84-1.07-1.33a6.45,6.45,0,0,0-1.15-1.07l1.26.09,2.57.25,3.54.24-.58-3.75,1.82-2.06c.12.62.22,1.31.33,2a3.06,3.06,0,0,1-.32,2.41A8.48,8.48,0,0,1,48.52,32a7.57,7.57,0,0,1-1.34,1.2,3,3,0,0,1-2.36.56c-.49,0-1-.07-1.5-.12"/><path class="cls-2" d="M29.16,43.78a4.23,4.23,0,0,0,3.08,1.75l0,.13c.11.4.22.8.32,1.19a3.07,3.07,0,0,1-.11,2.43A7.55,7.55,0,0,1,31.42,51a7.77,7.77,0,0,1-1.33,1.35,3,3,0,0,1-2.33.68l-2.34,0,1.95-2.12,4,0-1-3.77-.59-1.92-2.3,2.41-7.79,8.21-.39-.36,7.37-8.58,1.83-2.13-2.63-.24-3.65-.24.59,3.85-1.82,2c-.12-.62-.22-1.3-.33-2A3.06,3.06,0,0,1,21,45.78a8.31,8.31,0,0,1,1.21-1.62,7.81,7.81,0,0,1,1.41-1.27A3,3,0,0,1,26,42.32l1.77.14.26,0h.06c.17.22.65.84,1.05,1.3"/><path class="cls-2" d="M29.5,30.18c-.12.47-.29,1.17-.43,1.69s-.4,1.32-.53,1.74l-.21,0c-.63.06-1.36.13-2,.17a3,3,0,0,1-2.37-.56A8,8,0,0,1,22.59,32a8.14,8.14,0,0,1-1.19-1.61A3,3,0,0,1,21.08,28c.1-.66.21-1.35.33-2l1.81,2.06-.58,3.75,3.55-.24,2.56-.25-.36-.4-6.6-7.63L19.17,25.7l-5.66.77,3.35-3,4.78-.28-.81-.94a1.18,1.18,0,0,1-1.27-.31,1.16,1.16,0,0,1,1.72-1.55,1.16,1.16,0,0,1,.18,1.29l.85.9.77-4.72,3.34-3-1.34,5.55-2.62,2.37,7,7.45"/><path class="cls-2" d="M50.41,48.19c-.11.67-.21,1.35-.33,2l-1.81-2,.58-3.85-3.64.24-2.64.24,1.83,2.13,7.38,8.58-.4.36L43.59,47.6l-1.84-1.93c.13-.46.29-1,.43-1.42s.39-1.23.55-1.75l.59,0,1.78-.14a3,3,0,0,1,2.36.57,7.48,7.48,0,0,1,1.41,1.27,8.18,8.18,0,0,1,1.22,1.62,3,3,0,0,1,.32,2.41"/><path class="cls-3" d="M40.7,47.11l-1,3.77,4,0L45.69,53l-2.34,0A3,3,0,0,1,41,52.33,7.3,7.3,0,0,1,39.7,51a7.55,7.55,0,0,1-1.07-1.7,3,3,0,0,1-.11-2.43c.15-.61.34-1.27.51-1.85l.43-1.43L40,41.83l.24-.74c.59-1.78,1-3.16,1.18-3.67l1-3.72-2-.2-3.56,4-.34.38.11.12,2.89,3.3-.65,2.08L38.4,45c-1.75.08-3.42.09-4,.08a13.67,13.67,0,0,1-2-.15,3.32,3.32,0,0,1-2.25-1,14.77,14.77,0,0,1-1.21-1.36,8.63,8.63,0,0,1-1.06-1.71,3,3,0,0,1-.1-2.43c.16-.66.36-1.36.54-2,0,0,.48-1.5.89-2.9,0,0,.29-1,.46-1.59s.25-.92.35-1.33c.26-1,.47-1.83.47-1.83s.71-2.88.91-3.7l-3.88,0-2-2.12c.65,0,1.64,0,2.34,0a2.9,2.9,0,0,1,2.34.68,7,7,0,0,1,1.22,1.22,7.85,7.85,0,0,1,1.1,1.7A3.06,3.06,0,0,1,32.66,29c-.16.66-.36,1.36-.53,2l0,.17-.43,1.43.46.49.13.15.12.12h0l2.79,3,.41.44.25-.27,2.93-3.18h-.27c-2.28-.08-3.07-.09-5.35,0l-.43-.48-.38-.4.39-1.32C34.34,31,35.41,31,37,31a13.26,13.26,0,0,1,2,.15,3.39,3.39,0,0,1,2.28,1,14.35,14.35,0,0,1,1.28,1.47,7,7,0,0,1,1,1.61,3.05,3.05,0,0,1,.06,2.43c-.17.64-.38,1.31-.56,1.91l-.94,2.92c-.16.49-.34,1.08-.49,1.54-.2.65-.47,1.57-.62,2.08l-.29,1m-2.12-4.86-3-3.24-1-1.12-.4-.45-3-3.34c-.47,1.6-1.13,4-1.26,4.54l-1,3.78,1.5.16,1.1-1.24,2.62-3,.39.45.6.65-2.61,2.8-.44.48.8.05a60.82,60.82,0,0,0,6.1-.05Z"/><rect class="cls-4" width="253.97" height="71.11"/><polyline class="cls-1" points="98.65 22.95 73.62 22.95 73.62 29.55 82.82 29.55 82.82 52.92 89.45 52.92 89.45 29.55 98.65 29.55 98.65 22.95"/><rect class="cls-1" x="218.2" y="23.14" width="6.63" height="29.58"/><path class="cls-1" d="M131.41,23V39.73c0,5.29-3.23,7.33-6.74,7.33-3.82,0-6.59-2.56-6.59-6.81V23h-6.62V39.77c0,9.16,5.57,13.15,13.29,13.15C132,52.92,138,49.53,138,39.73V23h-6.63"/><polyline class="cls-1" points="172.57 47.3 159.39 47.3 159.39 23.14 152.76 23.14 152.76 52.72 172.57 52.72 172.57 47.3"/><polyline class="cls-1" points="205.79 47.3 192.6 47.3 192.6 23.14 185.98 23.14 185.98 52.72 205.79 52.72 205.79 47.3"/></g></g></svg>