<svg id="Layer_1" data-name="Layer 1" xmlns="http://www.w3.org/2000/svg" viewBox="0 0 396.75 103.37"><defs><style>.cls-1{fill:#009ac7;}.cls-2{fill:#fefefe;}.cls-3{fill:#87cde4;}</style></defs><title>Artboard 1</title><path class="cls-1" d="M110.41,102.62h-8c-1.78,0-2.51-.69-2.79-2.44-.39-2.44-.83-4.87-1.22-7.31-.1-.59-.39-.75-1-.75q-7.92,0-15.84,0c-.6,0-.83.19-.93.79-.45,2.51-1,5-1.43,7.51a2.31,2.31,0,0,1-2.52,2.19q-7.56,0-15.12,0c-1.32,0-1.83-.56-1.6-1.91.65-3.92,1.37-7.84,2.07-11.75q2-11.05,4-22.1,1.85-10.28,3.71-20.56,2.23-12.4,4.45-24.8Q75.81,12.25,77.5,3a2,2,0,0,1,2.25-1.85H99.06a2.19,2.19,0,0,1,2.45,2.06q4.78,23.94,9.55,47.89,4.9,24.64,9.77,49.29c.27,1.37-.38,2.17-1.91,2.19C116.09,102.64,113.25,102.62,110.41,102.62Z"/><path class="cls-1" d="M245.57,1.18h9.6a2,2,0,0,1,2.38,2q2.27,11.23,4.5,22.47,2.34,11.77,4.66,23.54,2.7,13.59,5.42,27.18,2.35,11.83,4.69,23.66c.39,1.94-.12,2.62-2.07,2.62H258.44c-1.72,0-2.36-.5-2.69-2.21-.48-2.5-.95-5-1.33-7.52-.1-.66-.36-.76-.92-.75-5.28,0-10.56,0-15.84,0-.91,0-.91.57-1,1.12-.5,2.46-1,4.92-1.46,7.38a2.11,2.11,0,0,1-2.39,2q-7.5,0-15,0a1.65,1.65,0,0,1-1.79-2.19q2.21-12.22,4.44-24.44,2.09-11.58,4.17-23.16,2.37-13.16,4.74-26.33,2.08-11.58,4.14-23.16A2.18,2.18,0,0,1,236,1.18Z"/><path class="cls-1" d="M384.82,102.62H376.9c-2,0-2.67-.61-3-2.51-.4-2.35-.85-4.7-1.18-7.06-.1-.72-.33-.93-1-.92q-7.8,0-15.59,0c-.77,0-1,.25-1.16,1-.45,2.51-.95,5-1.43,7.5a2.18,2.18,0,0,1-2.4,2q-7.38,0-14.76,0c-1.66,0-2.3-.84-2-2.48q3.18-17.57,6.37-35.13c2.2-12.26,4.37-24.53,6.56-36.8q2.24-12.52,4.54-25a2.11,2.11,0,0,1,2.37-2h19.31a2.06,2.06,0,0,1,2.33,1.9q1.93,9.54,3.82,19.09,3.06,15.4,6.1,30.8,2.95,14.87,5.91,29.74,1.73,8.72,3.47,17.43c.34,1.69-.21,2.45-1.93,2.47C390.41,102.64,387.61,102.62,384.82,102.62Z"/><path class="cls-1" d="M168.35,71.33c2.8,0,5.6,0,8.4,0,1.48,0,2,.55,2,2,0,1.92,0,3.84,0,5.76a6,6,0,0,0,5.77,6,5.76,5.76,0,0,0,5.69-5.88c0-2,.06-3.92-.1-5.87a8.89,8.89,0,0,0-3-5.59c-4.22-4.15-8.61-8.11-13.1-12-4.92-4.21-9.39-8.73-12.47-14.53-5.21-9.79-3.88-23,3.63-31.56A27.49,27.49,0,0,1,182.45.29c14.38-2,27.91,6.47,30.23,21.59A73.5,73.5,0,0,1,213.07,33c0,1.14-.81,1.53-1.88,1.53-5,0-9.92,0-14.88,0-3.51,0-3.53,0-3.54-3.54,0-2.4,0-4.8-.08-7.19a5.5,5.5,0,0,0-4.94-5.12,5.4,5.4,0,0,0-6,4.78c-.18,3-.44,6,.39,8.93a8.26,8.26,0,0,0,2.45,4c7.22,6.55,14.5,13,21.57,19.75a24.86,24.86,0,0,1,7.95,18.1,27.08,27.08,0,0,1-5.71,18.08,28.21,28.21,0,0,1-20.15,10.87A29.59,29.59,0,0,1,169.12,99a22.72,22.72,0,0,1-10.76-16.6,58.5,58.5,0,0,1-.38-9.09c0-1.48.48-1.92,2-1.93C162.75,71.32,165.55,71.33,168.35,71.33Z"/><path class="cls-1" d="M32.51,58c.75-3.81,1.52-7.62,2.26-11.43,1.39-7.19,2.77-14.39,4.16-21.58S41.76,10.53,43.17,3.3c.31-1.59.92-2.13,2.5-2.13H60.31c1.86,0,2.37.58,2,2.42-.65,3.68-1.34,7.36-2,11Q58.11,27,55.89,39.45,54,49.74,52.18,60q-2.23,12.4-4.44,24.81-1.42,7.88-2.87,15.75a2.13,2.13,0,0,1-2.27,2q-9.72,0-19.44,0a2.2,2.2,0,0,1-2.3-2q-3.49-17.57-7-35.13-3.54-17.8-7.1-35.6Q4.13,16.51,1.49,3.16A1.5,1.5,0,0,1,3,1.15q8.76,0,17.52,0c1.27,0,1.88.65,2.15,2.13.6,3.29,1.16,6.58,1.74,9.88q2.14,12.24,4.27,24.48,1.74,10,3.45,20a1.79,1.79,0,0,0,.12.32Z"/><path class="cls-1" d="M284.81,51.8q0-24.05,0-48.11c0-2.14.38-2.52,2.48-2.52H303c2.28,0,2.66.37,2.66,2.62q0,37.73,0,75.46c0,1.93-.23,1.68,1.63,1.68,6,0,12.07,0,18.11-.07,2.26,0,2.71.45,2.71,2.73q0,8.34,0,16.68c0,1.87-.47,2.35-2.33,2.35H287c-1.7,0-2.21-.53-2.21-2.22Q284.81,76.09,284.81,51.8Z"/><path class="cls-1" d="M150.22,51.94q0,23.94,0,47.88c0,2.29-.52,2.8-2.83,2.8H130.95c-1.94,0-2.56-.63-2.56-2.59q0-48.12,0-96.23c0-2.1.52-2.62,2.6-2.62h16.56c2.19,0,2.68.48,2.68,2.64Q150.22,27.88,150.22,51.94Z"/><path class="cls-2" d="M89.78,45.91a15.49,15.49,0,0,1,1.14,4.51c1.29,7.21,2.52,14.43,3.79,21.64.25,1.41.27,1.42-1.13,1.42-2.6,0-5.2,0-7.8,0-1.1,0-1.37-.15-1.13-1.36C86.42,63.42,88.08,54.66,89.78,45.91Z"/><path class="cls-2" d="M246.14,45.61c.82,4.65,1.65,9.22,2.45,13.8.77,4.39,1.47,8.8,2.28,13.18.16.86-.1.92-.79.91-2.88,0-5.76,0-8.64,0-.8,0-.9-.22-.76-.95,1-5.15,2-10.32,3-15.48q1-5.28,2-10.55A1.46,1.46,0,0,1,246.14,45.61Z"/><path class="cls-2" d="M364.51,45.84l2.78,16.1c.61,3.57,1.2,7.14,1.86,10.7.14.77-.08.87-.74.87q-4.37,0-8.75,0c-.64,0-.88,0-.72-.86,1.72-8.61,3.38-17.24,5.05-25.86,0-.23.05-.47.08-.71S364.24,45.68,364.51,45.84Z"/><path class="cls-3" d="M364.51,45.84l-.42.23a.79.79,0,0,1,.35-.78Z"/></svg>