<?xml version="1.0" encoding="utf-8"?>
<!-- Generator: Adobe Illustrator 22.1.0, SVG Export Plug-In . SVG Version: 6.00 Build 0)  -->
<svg version="1.1" id="Layer_1" xmlns="http://www.w3.org/2000/svg" xmlns:xlink="http://www.w3.org/1999/xlink" x="0px" y="0px"
	 viewBox="0 0 1062.871 442.0924" style="enable-background:new 0 0 1062.871 442.0924;" xml:space="preserve">
<g>
	<g>
		<path style="fill:#FBB117;" d="M276.4908,126.1904c1.1082-1.9195,0.2015-3.49-2.015-3.49h-42.1132
			c-2.2165,0-3.1232,1.5705-2.015,3.49l21.0564,36.4709c1.1082,1.9195,2.9217,1.9195,4.0299,0L276.4908,126.1904z"/>
	</g>
	<g>
		<path style="fill:#FBB117;" d="M139.9867,122.7004c-2.2165,0-3.1232,1.5705-2.0149,3.49l67.2446,116.4698
			c1.1082,1.9195,2.9217,1.9195,4.03,0l24.0999-41.7419c1.1082-1.9195,1.1082-5.0605,0-6.98l-39.1142-67.7479
			c-1.1082-1.9195-3.8284-3.49-6.0449-3.49H139.9867z"/>
	</g>
</g>
<path style="fill:#32363F;" d="M345.3322,203.91h11.7592l28.1991-81.1138h-12.7366l-16.2069,48.0581
	c-1.3673,4.2221-2.3521,7.3275-3.3457,10.7113l-0.5496,1.8934c-0.4734,1.6267-0.7987,2.7449-1.0625,3.8836h-0.0938
	c-0.1993-1.2325-0.5217-2.5983-0.9233-4.291l-0.3459-1.4699c-0.8397-3.5011-2.1704-7.8551-3.1142-10.6117l-15.8464-48.1739h-13.4518
	l27.632,80.8603L345.3322,203.91z"/>
<rect x="395.7639" y="122.7961" style="fill:#32363F;" width="11.8041" height="80.8808"/>
<path style="fill:#32363F;" d="M458.2585,157.0023l-9.6723-2.7903c-8.5688-2.4811-11.9072-5.6085-11.9072-11.1539
	c0-7.2293,5.5748-11.7196,14.548-11.7196c6.5713,0,11.6448,1.6296,19.3915,6.2269l0.3107,0.1847l5.5293-8.5175l-0.3019-0.2066
	c-7.266-4.9885-16.0501-7.6264-25.4059-7.6264c-16.5074,0-27.5983,9.4979-27.5983,23.6356c0,10.7318,6.0862,17.2269,19.7344,21.0621
	l8.5981,2.4445c8.9762,2.4957,13.339,6.8292,13.339,13.2452c0,8.2493-6.8365,13.5793-17.4174,13.5793
	c-7.6558,0-14.4454-2.0282-22.0147-6.5742l-0.34-0.2052l-4.8889,9.2737l0.3063,0.1817c7.9591,4.7424,16.9426,7.1472,26.6999,7.1472
	c23.0508,0,31.4188-15.1078,31.4188-25.2637C478.5879,168.8919,471.3674,160.7511,458.2585,157.0023z"/>
<path style="fill:#32363F;" d="M519.5762,204.9563c10.7289,0,18.5562-3.1259,23.9301-9.555
	c3.7282-4.4551,4.3848-7.03,4.3848-17.2211v-55.3841h-12.2134v53.7559c0,6.3016-0.9496,10.5633-2.9047,13.0297
	c-2.5925,3.3282-7.115,5.0867-13.0766,5.0867c-5.692,0-10.2145-1.5652-12.7352-4.4082c-2.5148-2.8196-2.89-10.8183-2.89-15.335
	v-52.1292H491.739v56.3147c0,8.2918,0.425,10.5941,2.6775,14.4923C498.7119,201.1358,507.178,204.9563,519.5762,204.9563z"/>
<path style="fill:#32363F;" d="M596.698,122.9368l-0.085-0.2579h-14.8689l-27.0677,80.5027l-0.1671,0.4953h12.7352l7.1663-22.6786
	h27.9881l7.1985,22.4177l0.085,0.2609h13.6848L596.698,122.9368z M588.7638,134.5948c1.275,5.223,9.0333,31.1682,10.8622,36.3502
	h-22.0938c1.7938-5.1659,9.6664-31.0539,11.0967-36.3502H588.7638z"/>
<polygon style="fill:#32363F;" points="645.798,122.7961 633.3472,122.7961 633.3472,203.677 675.0992,203.677 677.1685,193.6222 
	645.798,193.6222 "/>
<g>
	<path style="fill:#32363F;" d="M286.4066,306.0227c-4.5811,3.4967-8.9088,4.9241-14.9349,4.9241
		c-9.0876,0-16.3168-4.6662-19.834-12.7997c-2.0971-4.8127-2.953-10.2292-2.953-18.6939c0-9.3733,1.2383-16.1556,3.8968-21.3435
		c3.7971-7.3978,9.9991-11.3092,17.9348-11.3092c5.5074,0,9.9332,1.4127,14.3502,4.5826l0.2946,0.2125l6.0555-7.9093l-0.2887-0.2301
		c-5.1718-4.1019-12.4216-6.3603-20.4115-6.3603c-12.5329,0-23.7264,6.9435-29.9431,18.5752
		c-3.5919,6.7589-5.4135,14.8396-5.4135,24.0166c0,11.6302,3.0409,21.3347,9.0377,28.8439
		c6.5024,8.0427,15.1972,12.1197,25.8411,12.1197c8.516,0,16.0604-2.2539,22.4236-6.6973l0.321-0.2257l-6.0789-7.9313
		L286.4066,306.0227z"/>
	<path style="fill:#32363F;" d="M330.9719,237.2102c-21.0944,0-33.6874,15.5313-33.6874,41.5454
		c0,26.3057,12.8173,42.0129,34.2853,42.0129c20.7046,0,33.5658-15.7863,33.5658-41.1981
		C365.1356,253.0464,352.3638,237.2102,330.9719,237.2102z M351.2544,280.6168c0,20.7983-6.4394,30.9103-19.6846,30.9103
		c-14.082,0-20.6401-10.8183-20.6401-34.0494c0-21.2966,6.1815-30.7945,20.0421-30.7945
		C344.9997,246.6832,351.2544,257.1483,351.2544,280.6168z"/>
	<path style="fill:#32363F;" d="M447.653,238.7241h-16.8635l-14.4058,49.9295c-1.2735,4.3906-2.1382,8.6611-2.6101,11.1642
		c-0.4133-2.2832-1.2867-6.3896-2.7581-11.7445l-13.8519-49.0766l-0.0762-0.2726h-16.7433l-7.4726,80.7636h11.9819l4.206-53.3734
		c0.3004-3.4967,0.595-9.1389,0.7518-12.4714c0.6258,2.6379,1.8333,7.5356,3.2886,12.5417l15.0433,53.0305l0.0777,0.2726h10.4739
		l16.4385-55.856c1.0405-3.4088,1.9799-7.1546,2.569-9.728c0.0103,0.296,0.022,0.6096,0.0323,0.935
		c0.0996,2.843,0.2345,6.7325,0.4865,9.7602l4.2968,54.5429l0.0264,0.3459h12.2193l-7.0798-80.4207L447.653,238.7241z"/>
	<path style="fill:#32363F;" d="M512.5021,242.3834c-4.7248-2.8592-9.5316-3.7766-19.7784-3.7766h-22.3415v80.8808h12.212v-31.3998
		h13.2349c9.1066,0,13.4621-1.8993,17.5376-4.9622c7.2308-5.4224,10.1793-11.4749,10.1793-20.8834
		C523.5461,253.6648,519.727,246.7975,512.5021,242.3834z M510.0195,263.5232c0,4.2793-1.042,7.4682-3.378,10.3464
		c-2.487,3.0805-5.9353,4.3965-11.5305,4.3965h-12.5168v-29.7218h10.3699c6.2166,0,10.2629,1.1885,13.1177,3.8542
		C508.7314,254.8709,510.0195,258.5083,510.0195,263.5232z"/>
	<path style="fill:#32363F;" d="M563.8051,237.2102c-21.0944,0-33.6888,15.5313-33.6888,41.5454
		c0,26.3057,12.8173,42.0129,34.2868,42.0129c20.7045,0,33.5657-15.7863,33.5657-41.1981
		C597.9688,253.0464,585.1984,237.2102,563.8051,237.2102z M584.0847,280.6168c0,20.7983-6.4365,30.9103-19.6816,30.9103
		c-14.0805,0-20.6401-10.8183-20.6401-34.0494c0-21.2966,6.1815-30.7945,20.0421-30.7945
		C577.8299,246.6832,584.0847,257.1483,584.0847,280.6168z"/>
	<path style="fill:#32363F;" d="M653.6899,278.2925c0,8.6347,0.9056,20.7808,1.1665,23.5769l-0.0615,0.0205
		c-0.8823-2.8313-4.7512-12.5945-8.0368-18.8873l-22.9263-44.1936l-0.1055-0.2022h-13.975v80.8808h12.3337l-0.4778-42.4819
		c-0.1495-9.3-0.4455-16.311-0.9262-22.0089l0.0587-0.0088c2.0165,5.8561,7.6059,17.1053,9.9478,21.7304l21.6102,42.5639
		l0.1025,0.2052h12.9081v-80.8808h-11.8618L653.6899,278.2925z"/>
	<polygon style="fill:#32363F;" points="694.6653,282.39 721.053,282.39 721.053,272.2166 694.5451,272.2166 694.5451,248.5444 
		726.1295,248.5444 727.806,238.6068 682.2144,238.6068 682.2144,319.4877 729.0517,319.4877 729.0517,309.0855 694.6653,309.0855 	
		"/>
	<path style="fill:#32363F;" d="M786.6927,278.2925c0,8.6347,0.9056,20.7808,1.1665,23.5769l-0.0615,0.0205
		c-0.8823-2.8313-4.7512-12.5945-8.0368-18.8873l-22.9263-44.1936l-0.1055-0.2022h-13.975v80.8808h12.3337l-0.4778-42.4819
		c-0.1495-9.3-0.4455-16.311-0.9262-22.0089l0.0587-0.0088c2.0165,5.8561,7.6059,17.1053,9.9478,21.7304l21.6103,42.5639
		l0.1025,0.2052h12.9081v-80.8808h-11.8618L786.6927,278.2925z"/>
	<polygon style="fill:#32363F;" points="808.7197,248.6616 830.0925,248.6616 830.0925,319.4877 842.1829,319.4877 
		842.1829,248.6616 863.5146,248.6616 864.8014,238.6068 808.7197,238.6068 	"/>
	<path style="fill:#32363F;" d="M904.1072,272.8145l-9.6693-2.7903c-8.5703-2.4825-11.9086-5.6099-11.9086-11.1554
		c0-7.2278,5.5747-11.7181,14.5494-11.7181c6.5684,0,11.6419,1.6296,19.3915,6.2254l0.3077,0.1846l5.5278-8.5175l-0.3019-0.2066
		c-7.263-4.9886-16.0472-7.6264-25.403-7.6264c-16.5073,0-27.5982,9.4994-27.5982,23.637c0,10.7304,6.0876,17.2255,19.7344,21.0621
		l8.5995,2.4415c8.9747,2.5001,13.3389,6.8322,13.3389,13.2481c0,8.2478-6.8351,13.5793-17.416,13.5793
		c-7.6528,0-14.444-2.0283-22.0176-6.5771l-0.34-0.2022l-4.8859,9.2708l0.3048,0.1817c7.9547,4.7424,16.9382,7.1487,26.6984,7.1487
		c23.0523,0,31.4203-15.1064,31.4203-25.2623C924.4395,284.7026,917.2175,276.5603,904.1072,272.8145z"/>
</g>
</svg>
