<?xml version="1.0" encoding="utf-8"?>
<!-- Generator: Adobe Illustrator 16.0.0, SVG Export Plug-In . SVG Version: 6.00 Build 0)  -->
<!DOCTYPE svg PUBLIC "-//W3C//DTD SVG 1.1//EN" "http://www.w3.org/Graphics/SVG/1.1/DTD/svg11.dtd">
<svg version="1.1" id="Layer_1" xmlns="http://www.w3.org/2000/svg" xmlns:xlink="http://www.w3.org/1999/xlink" x="0px" y="0px"
	 width="765.354px" height="572.371px" viewBox="0 0 765.354 572.371" enable-background="new 0 0 765.354 572.371"
	 xml:space="preserve">
<g>
	<path d="M765.351,268.385c-0.154-17.141-7.004-34.507-14.695-47.6c0,0-108.137-185.791-109.061-187.275l-0.133-0.232l-0.012,0.008
		C629.564,14.303,608.974,1.342,585.263,0H180.091c-23.711,1.342-44.302,14.303-56.186,33.286l-0.013-0.008l-0.133,0.232
		c-0.922,1.484-109.06,187.275-109.06,187.275c-7.69,13.093-14.542,30.458-14.696,47.6c-0.222,24.699,11.517,46.708,29.81,60.544
		l-0.002,0.002l282.681,215.445c22.246,16.135,43.826,27.988,70.186,27.994c26.359,0.006,47.939-11.859,70.184-27.994
		l282.683-215.445l-0.004-0.002C753.837,315.093,765.574,293.083,765.351,268.385z"/>
	<g>
		<path fill="#FFFFFF" d="M136.522,299.005c18.234,0,32.863-3.207,32.863-3.207l1.803,9.621c0,0-13.025,4.006-33.864,4.006
			c-30.66,0-46.089-5.611-46.089-47.892c0-12.624,1.804-24.446,4.809-31.46c5.411-12.625,17.434-16.431,38.875-16.431
			c16.632,0,28.656,1.803,34.867,9.417c5.011,6.412,7.015,15.229,7.015,30.859c0,3.608-0.202,7.014-0.401,10.822
			c-3.407,0.2-16.031,1.602-31.06,1.602c-14.427,0-27.653-0.801-27.653-0.801l-6.212-4.208c-1.203-0.802-2.004-1.402-3.607-1.402
			c-3.807,0-3.406,3.606-3.406,6.211c0,8.417,0.2,19.037,6.012,25.449C115.281,297.001,124.098,299.005,136.522,299.005z
			 M136.122,223.661c-29.457,0-30.258,5.21-31.461,31.06c13.827,2.204,30.058,1.804,30.058,1.804s16.631,0.4,28.655-0.802
			C163.374,226.667,157.763,223.661,136.122,223.661z"/>
		<path fill="#FFFFFF" d="M249.273,183.184c0,0-6.413-0.802-12.624-0.802c-6.212,0-12.424,0.402-15.229,3.407
			c-3.006,3.407-3.407,9.82-3.407,16.631v12.425h29.457v9.818h-29.457v70.735c0,2.605,0.401,3.207,2.806,3.607l5.21,1.002v8.016
			h-28.655v-7.814l5.21-1.002c2.404-0.602,2.805-1.203,2.805-3.608v-70.935h-17.633v-9.818h17.633V202.22
			c0-10.019,0.601-19.637,9.018-25.449c5.01-3.606,13.025-4.208,20.438-4.208c7.015,0,15.229,1.402,15.229,1.402L249.273,183.184z"
			/>
		<path fill="#FFFFFF" d="M258.786,308.023v-7.814l5.211-1.002c2.404-0.602,2.805-1.203,2.805-3.608v-68.129
			c0-2.606-0.401-3.206-2.805-3.606l-5.211-1.003v-8.015h20.64v80.553c0,2.605,0.401,3.207,2.806,3.607l5.21,1.002v8.016H258.786z
			 M262.995,189.797v-15.229h15.83v15.229H262.995z"/>
		<path fill="#FFFFFF" d="M374.605,217.65l-1.602,9.417c0,0-14.428-3.206-29.256-3.206c-25.449,0-31.06,5.61-31.06,37.671
			c0,32.061,5.611,37.673,31.06,37.673c14.829,0,29.256-3.205,29.256-3.205l1.602,9.418c0,0-15.429,4.006-32.862,4.006
			c-31.26,0-42.28-8.416-42.28-47.892c0-39.476,11.021-47.891,42.28-47.891C359.176,213.643,374.605,217.65,374.605,217.65z"/>
		<path fill="#FFFFFF" d="M429.527,309.425c-35.868,0-42.28-8.416-42.28-47.892c0-39.476,6.412-47.891,42.28-47.891
			c35.87,0,42.282,8.415,42.282,47.891C471.809,301.009,465.397,309.425,429.527,309.425z M429.527,223.661
			c-26.45,0-29.056,4.009-29.056,37.873c0,33.864,2.605,37.872,29.056,37.872s29.057-4.008,29.057-37.872
			C458.583,227.67,455.977,223.661,429.527,223.661z"/>
		<path fill="#FFFFFF" d="M558.328,308.023l-0.801-5.01c-0.201-1.201-0.602-3.205-3.406-3.205c-1.402,0-2.807,1.002-4.008,1.803
			l-9.617,6.412c0,0-7.615,1.402-17.033,1.402c-30.46,0-35.469-19.637-35.469-47.892c0-27.252,4.808-47.891,37.07-47.891
			c15.23,0,29.459,2.605,32.062,3.206v-29.657c0-2.604-0.402-3.207-2.807-3.606l-5.209-1.002v-8.015h20.639v120.83
			c0,2.605,0.402,3.207,2.805,3.607l5.211,1.002v8.016H558.328z M557.126,226.267c-2.406-0.402-15.832-2.405-27.854-2.405
			c-23.244,0-28.055,7.814-28.055,37.671c0,30.058,4.811,37.472,28.055,37.472c14.027,0,27.854-4.008,27.854-4.008V226.267z"/>
		<path fill="#FFFFFF" d="M633.847,299.005c18.234,0,32.863-3.207,32.863-3.207l1.805,9.621c0,0-13.025,4.006-33.865,4.006
			c-30.66,0-46.088-5.611-46.088-47.892c0-12.624,1.803-24.446,4.809-31.46c5.41-12.625,17.434-16.431,38.875-16.431
			c16.629,0,28.654,1.803,34.865,9.417c5.01,6.412,7.014,15.229,7.014,30.859c0,3.608-0.201,7.014-0.4,10.822
			c-3.406,0.2-16.029,1.602-31.059,1.602c-14.43,0-27.654-0.801-27.654-0.801l-6.211-4.208c-1.203-0.802-2.004-1.402-3.607-1.402
			c-3.807,0-3.408,3.606-3.408,6.211c0,8.417,0.203,19.037,6.014,25.449C612.609,297.001,621.423,299.005,633.847,299.005z
			 M633.449,223.661c-29.459,0-30.26,5.21-31.461,31.06c13.826,2.204,30.057,1.804,30.057,1.804s16.633,0.4,28.656-0.802
			C660.701,226.667,655.087,223.661,633.449,223.661z"/>
	</g>
</g>
</svg>
