<?xml version="1.0" encoding="utf-8"?>
<!-- Generator: Adobe Illustrator 16.0.0, SVG Export Plug-In . SVG Version: 6.00 Build 0)  -->
<!DOCTYPE svg PUBLIC "-//W3C//DTD SVG 1.1//EN" "http://www.w3.org/Graphics/SVG/1.1/DTD/svg11.dtd">
<svg version="1.1" id="Layer_2" xmlns="http://www.w3.org/2000/svg" xmlns:xlink="http://www.w3.org/1999/xlink" x="0px" y="0px"
	 width="624px" height="624px" viewBox="0 0 624 624" enable-background="new 0 0 624 624" xml:space="preserve">
<path fill="none" stroke="#FED3AC" stroke-width="27" stroke-miterlimit="10" d="M376.071,414.489v80.129
	c0,0,0,16.025-16.025,16.027c0,0-16.025-0.002-16.026,16.025c0,0,0,16.023-16.025,16.023h-32.051
	c-16.025,0-16.025-16.021-16.025-16.021c0-16.029-16.025-16.029-16.025-16.029c-16.025,0-16.026-16.025-16.026-16.025v-96.152
	c0,0,0.001-16.074-16.026-16.025c-68.412,0.193-80.249-78.718-80.127-112.181c0.291-80.127,64.102-160.256,160.256-160.255
	c96.153,0,162.647,80.164,160.256,160.255c-1.038,34.779-26.688,110.493-96.154,112.181
	c-89.342,2.168-113.016-15.846-113.016-63.921c0-58.764,8.438-82.429,22.688-89.764c30.27-15.58,70.741,17.911,42.252,57.529"/>
</svg>
