<?xml version="1.0" encoding="UTF-8" standalone="no"?>
<!-- Created with Inkscape (http://www.inkscape.org/) -->

<svg
   version="1.1"
   id="svg44"
   width="2048"
   height="2047.9999"
   viewBox="0 0 2048 2047.9999"
   sodipodi:docname="potentiaali_bulb.svg"
   inkscape:version="1.2.2 (b0a8486541, 2022-12-01)"
   xmlns:inkscape="http://www.inkscape.org/namespaces/inkscape"
   xmlns:sodipodi="http://sodipodi.sourceforge.net/DTD/sodipodi-0.dtd"
   xmlns="http://www.w3.org/2000/svg"
   xmlns:svg="http://www.w3.org/2000/svg">
  <defs
     id="defs48">
    <clipPath
       clipPathUnits="userSpaceOnUse"
       id="clipPath60">
      <path
         d="M 0,0 H 6400 V 6400 H 0 Z"
         clip-rule="evenodd"
         id="path58" />
    </clipPath>
    <clipPath
       clipPathUnits="userSpaceOnUse"
       id="clipPath72">
      <path
         d="M 0,0 H 6400 V 6400 H 0 Z"
         clip-rule="evenodd"
         id="path70" />
    </clipPath>
    <clipPath
       clipPathUnits="userSpaceOnUse"
       id="clipPath84">
      <path
         d="M 0,0 H 6400 V 6431.25 H 0 Z"
         id="path82" />
    </clipPath>
    <clipPath
       clipPathUnits="userSpaceOnUse"
       id="clipPath90">
      <path
         d="M 0,0 H 6400 V 6400 H 0 Z"
         id="path88" />
    </clipPath>
    <clipPath
       clipPathUnits="userSpaceOnUse"
       id="clipPath96">
      <path
         d="M 0,0 H 6400 V 6400 H 0 Z"
         id="path94" />
    </clipPath>
    <clipPath
       clipPathUnits="userSpaceOnUse"
       id="clipPath102">
      <path
         d="M 1838.3873,0.01330964 6302.0239,1625.7675 4564.7559,6395.5737 101.11926,4769.8198 Z"
         id="path100" />
    </clipPath>
    <clipPath
       clipPathUnits="userSpaceOnUse"
       id="clipPath108">
      <path
         d="M 1838.3873,0.01330964 6302.0239,1625.7675 4564.7559,6395.5737 101.11926,4769.8198 Z"
         id="path106" />
    </clipPath>
    <clipPath
       clipPathUnits="userSpaceOnUse"
       id="clipPath120">
      <path
         d="M 2073.0737,2073.074 H 4319.6943 V 4319.6944 H 2073.0737 Z"
         clip-rule="evenodd"
         id="path118" />
    </clipPath>
  </defs>
  <sodipodi:namedview
     id="namedview46"
     pagecolor="#ffffff"
     bordercolor="#666666"
     borderopacity="1.0"
     inkscape:showpageshadow="2"
     inkscape:pageopacity="0.0"
     inkscape:pagecheckerboard="true"
     inkscape:deskcolor="#d1d1d1"
     showgrid="false"
     inkscape:zoom="0.50146488"
     inkscape:cx="337.01263"
     inkscape:cy="1028.9853"
     inkscape:window-width="2560"
     inkscape:window-height="1381"
     inkscape:window-x="0"
     inkscape:window-y="0"
     inkscape:window-maximized="1"
     inkscape:current-layer="g52">
    <inkscape:page
       x="0"
       y="0"
       id="page50"
       width="2048"
       height="2047.9999" />
  </sodipodi:namedview>
  <g
     id="g52"
     inkscape:groupmode="layer"
     inkscape:label="Page 1"
     transform="matrix(0.31999998,0,0,0.31999998,0,5.8130664e-5)">
    <g
       id="g54"
       style="display:inline;fill:#000000;fill-opacity:0">
      <g
         id="g56"
         clip-path="url(#clipPath60)"
         style="display:inline;fill:#000000;fill-opacity:0">
        <g
           id="g62"
           transform="scale(3.125)"
           style="display:inline;fill:#000000;fill-opacity:0">
          <path
             d="M 0,0 H 2048 V 2048 H 0 Z"
             style="display:inline;fill:#000000;fill-opacity:0;fill-rule:nonzero;stroke:none"
             id="path64" />
        </g>
      </g>
    </g>
    <g
       id="g66"
       style="display:inline;fill:#f58020;fill-opacity:1">
      <g
         id="g68"
         clip-path="url(#clipPath72)"
         style="fill:#f58020;fill-opacity:1">
        <g
           id="g74"
           transform="scale(3.125)"
           style="display:inline;fill:#f58020;fill-opacity:1">
          <path
             d="M 0,0 H 2048 V 2048 H 0 Z"
             style="display:inline;fill:#f58020;fill-opacity:1;fill-rule:nonzero;stroke:none"
             id="path76" />
        </g>
      </g>
    </g>
    <g
       id="g78"
       style="display:inline;fill:#fed3ac;fill-opacity:1">
      <g
         id="g80"
         clip-path="url(#clipPath84)"
         style="fill:#fed3ac;fill-opacity:1">
        <g
           id="g86"
           clip-path="url(#clipPath90)"
           style="display:inline;fill:#fed3ac;fill-opacity:1">
          <g
             id="g92"
             clip-path="url(#clipPath96)"
             style="display:inline;fill:#fed3ac;fill-opacity:1">
            <g
               id="g98"
               clip-path="url(#clipPath102)"
               style="fill:#fed3ac;fill-opacity:1">
              <g
                 id="g104"
                 clip-path="url(#clipPath108)"
                 style="fill:#fed3ac;fill-opacity:1">
                <g
                   id="g110"
                   transform="matrix(9.4930592,3.4575799,-3.4529467,9.4803381,181.51514,-3271.1653)"
                   style="fill:#fed3ac;fill-opacity:1">
                  <path
                     d="m 499.87,334.31 c -42.19001,0.5 -81.78,17.32 -111.48002,47.35 -29.72,30.04999 -46.07998,69.88001 -46.07998,112.13999 0,47.83001 21.19,92.72003 58.14999,123.15997 C 412.12,626.56995 418.81,640.80994 418.81,656.04999 V 695.87 c 0,30.55999 24.86999,55.42999 55.42999,55.42999 H 529.38 c 30.56,0 55.43,-24.87 55.43,-55.42999 v -39.82001 c 0,-15.20001 6.78003,-29.52002 18.59997,-39.29999 37.52002,-31.03003 58.62,-76.75 57.88001,-125.42999 C 659.96002,403.69 587.56,333.23999 499.87,334.31 Z m 29.51,394.97998 h -55.14001 c -16.64001,0 -30.47,-12.21997 -33.01001,-28.15003 h 121.16003 c -2.54003,15.94007 -16.36999,28.15003 -33.01001,28.15003 z m 33.43,-50.14997 h -122 v -12.09997 h 122 z m 26.58001,-79.35003 C 575.38,611.38 566.33002,627.46997 563.65002,645.03998 H 439.97 c -2.66,-17.59998 -11.61999,-33.62 -25.51999,-45.07001 -31.85998,-26.23999 -50.13,-64.94 -50.13,-106.17999 0,-74.91998 60.92999,-136.59 135.82,-137.48999 0.56,-0.01 1.10999,-0.01 1.67002,-0.01 74.82998,0 136.36001,60.38 137.50003,135.35998 0.61993,41.97004 -17.57007,81.38007 -49.92005,108.14002 z M 490.81,300.75 v -41.04001 c 0,-6.08 4.92001,-11 11,-11 6.07998,0 11,4.92 11,11 V 300.75 c 0,6.07999 -4.92002,11 -11,11 -6.07999,0 -11,-4.92001 -11,-11 z m 92.75,19.92999 20.52002,-35.54001 c 3.03998,-5.26001 9.77002,-7.05999 15.03003,-4.02999 5.26001,3.04 7.05999,9.76998 4.03003,15.02999 l -20.52002,35.54001 c -2.03998,3.53 -5.73999,5.5 -9.53998,5.5 -1.87,0 -3.76001,-0.48001 -5.48999,-1.48001 -5.26007,-3.02997 -7.06006,-9.75998 -4.03009,-15.01999 z M 700.46997,382.85001 664.92999,403.37 c -1.72998,1 -3.61999,1.48001 -5.48999,1.48001 -3.79999,0 -7.5,-1.97001 -9.53998,-5.5 -3.03997,-5.26001 -1.22998,-11.98999 4.03003,-15.03 l 35.53998,-20.51999 c 5.27002,-3.04001 11.98999,-1.23001 15.03003,4.03 3.02997,5.24997 1.22992,11.97998 -4.03009,15.01999 z m 34.62006,102.75998 c 0,6.07998 -4.91999,11 -11,11 h -41.03998 c -6.08002,0 -11,-4.92002 -11,-11 0,-6.07999 4.91998,-11 11,-11 h 41.03998 c 6.06994,0 11,4.92001 11,11 z M 380,294.32001 c -3.04001,-5.26001 -1.23001,-11.98999 4.03,-15.03 5.26001,-3.04001 11.98999,-1.23001 15.03,4.03 l 20.51999,35.54001 c 3.04001,5.26001 1.23001,11.98999 -4.03,15.02999 -1.73001,1 -3.62,1.48002 -5.48999,1.48002 -3.79999,0 -7.5,-1.97001 -9.54001,-5.5 z m -37.62,107.38 c -1.86999,0 -3.76,-0.48001 -5.48999,-1.48001 l -35.54,-20.51999 c -5.26001,-3.04001 -7.06,-9.76999 -4.03,-15.03 3.04001,-5.26001 9.76999,-7.05999 15.03,-4.03 l 35.54,20.51999 c 5.26001,3.04001 7.06,9.76999 4.03,15.03 -2.04001,3.54001 -5.74002,5.51001 -9.54001,5.51001 z m -14.42001,80.28 c 0,6.07999 -4.92001,11 -11,11 h -41.04001 c -6.07998,0 -11,-4.92001 -11,-11 0,-6.07999 4.92002,-11 11,-11 h 41.04001 c 6.07001,0 11,4.92999 11,11 z"
                     style="fill:#fed3ac;fill-opacity:1;fill-rule:nonzero;stroke:none"
                     id="path112" />
                </g>
              </g>
            </g>
          </g>
        </g>
      </g>
    </g>
    <g
       id="g114"
       style="display:inline;fill:#fed3ac;fill-opacity:1">
      <g
         id="g116"
         clip-path="url(#clipPath120)"
         style="display:inline;fill:#fed3ac;fill-opacity:1">
        <g
           id="g122"
           transform="matrix(5.5733576,0,0,5.5733576,2073.0735,2073.074)"
           style="display:inline;fill:#fed3ac;fill-opacity:1">
          <path
             d="m 403.06,201.53 c 0,111.11999 -90.41001,201.53 -201.53,201.53 -3.94,0 -7.86,-0.13001 -11.75,-0.35001 v -17.95001 c 3.89,0.25 7.8,0.39001 11.75,0.39001 101.25,0 183.61999,-82.36999 183.61999,-183.61999 0,-101.25 -82.36999,-183.62 -183.61999,-183.62 -3.95,0 -7.86,0.17 -11.75,0.41 -95.790002,6.08 -171.869996,85.91 -171.869996,183.19999 0,58.53 27.559997,110.69998 70.339996,144.35001 V 202.00999 C 88.25,169.62999 98.860001,143.28 120.7,121.44 142.53,99.609993 168.88,89 201.25999,89 233.67,89 260.13,99.639999 282.16,121.51 c 21.97,21.83 32.65,48.16 32.65,80.49999 0,32.38001 -10.70001,58.82 -32.72,80.83001 -22.01999,22.01999 -48.46,32.72 -80.83001,32.72 -4.88,0 -6.22,-1.37 -6.96,-2.13001 -0.76,-0.78 -2.35001,-2.41 -2.35001,-7.72 0,-5.1 1.42,-6.51999 2.11,-7.20001 0.67999,-0.67999 2.11,-2.10999 7.2,-2.10999 25.89999,0 48.35001,-9.30999 66.72,-27.67999 18.35999,-18.36999 27.67999,-40.82001 27.67999,-66.70999 0,-25.60001 -9.61999,-48.62 -27.82998,-66.59 -18.36,-18.08999 -40.75,-27.26 -66.57001,-27.26 -25.89999,0 -48.25,9.22 -66.44,27.4 -18.19001,18.18001 -27.41001,40.54 -27.41001,66.45 v 157.10001 20.54 c -6.61,-3.51001 -13.009999,-7.35 -19.160001,-11.54998 C 35.02,331.79999 0,270.67999 0,201.53 0,94.349998 84.110001,6.48 189.78,0.37 193.67,0.14 197.58,0 201.53,0 312.64999,0 403.06,90.410004 403.06,201.53 Z"
             style="fill:#fed3ac;fill-opacity:1;fill-rule:nonzero;stroke:none"
             id="path124" />
        </g>
      </g>
    </g>
  </g>
</svg>
