<?xml version="1.0" encoding="UTF-8"?>
<!DOCTYPE svg PUBLIC "-//W3C//DTD SVG 1.1//EN" "http://www.w3.org/Graphics/SVG/1.1/DTD/svg11.dtd">
<!-- Creator: CorelDRAW -->
<svg xmlns="http://www.w3.org/2000/svg" xml:space="preserve" width="420.014mm" height="297.028mm" style="shape-rendering:geometricPrecision; text-rendering:geometricPrecision; image-rendering:optimizeQuality; fill-rule:evenodd; clip-rule:evenodd"
viewBox="0 0 420.014 297.028"
 xmlns:xlink="http://www.w3.org/1999/xlink">
 <defs>
  <style type="text/css">
   <![CDATA[
    .fil2 {fill:none}
    .fil1 {fill:#1F1A17}
    .fil3 {fill:#FFF500}
    .fil4 {fill:black}
    .fil0 {fill:yellow}
   ]]>
  </style>
 </defs>
 <g id="Layer_x0020_1">
  <metadata id="CorelCorpID_0Corel-Layer"/>
  <g id="_55693728">
   <path id="_55708800" class="fil0" d="M108.84 143.042c0,55.5036 45.3289,100.833 100.832,100.833 55.5035,0 100.833,-45.3289 100.833,-100.833 0,-55.5035 -45.329,-100.832 -100.833,-100.832 -55.5035,0 -100.832,45.3289 -100.832,100.832z"/>
   <path id="_55707968" class="fil1" d="M112.109 142.73c0,54.0981 44.1812,98.2793 98.2794,98.2793 54.0982,0 98.2794,-44.1812 98.2794,-98.2793 0,-54.0982 -44.1812,-98.2794 -98.2794,-98.2794 -54.0982,0 -98.2794,44.1812 -98.2794,98.2794z"/>
   <path id="_55707352" class="fil0" d="M132.738 142.652c0,-42.8683 34.9612,-77.7992 77.7992,-77.7992 42.8684,0 77.8295,34.9309 77.8295,77.7992 0,42.8381 -34.9611,77.7992 -77.8295,77.7992 -42.838,0 -77.7992,-34.9611 -77.7992,-77.7992z"/>
   <path id="_55706600" class="fil1" d="M134.606 142.73c0,42.0136 34.2641,76.2481 76.2481,76.2481 42.0137,0 76.2779,-34.2345 76.2779,-76.2481 0,-41.984 -34.2642,-76.2482 -76.2779,-76.2482 -41.984,0 -76.2481,34.2642 -76.2481,76.2482z"/>
   <polyline id="_55705152" class="fil2" points="221.304,64.3573 205.287,63.7038 190.022,66.2182 175.697,71.5272 162.794,79.4991 151.575,89.7045 142.449,102.068 135.824,116.048 132.028,131.69 131.393,147.576 133.898,162.906 139.282,177.175 147.235,190.208 157.45,201.363 169.748,210.48 183.728,217.104 199.295,220.956 214.054,221.566 228.312,219.576 241.801,215.015 254.184,208.368 265.081,199.515 274.351,188.969 281.669,176.684 286.765,163.155 287.005,161.924 287.301,160.767 287.531,159.602 287.827,158.445 288.001,157.205 288.231,156.039 288.397,154.864 288.627,153.698 289.224,137.607 286.71,122.342 281.345,107.942 273.438,95.049 263.168,83.8203 250.86,74.7684 236.815,68.1349 221.304,64.3573 "/>
   <path id="_55703104" class="fil3" d="M191.822 99.3705l0.2375 7.7198 -0.9501 0c-0.1782,-1.3658 -0.4454,-2.4347 -0.7423,-2.9989 -0.4751,-0.9501 -1.2471,-1.6627 -2.0487,-2.1081 -0.8611,-0.4453 -2.0488,-0.7126 -3.3849,-0.7126l-4.7507 0 0 26.1287c0,2.1675 0.2376,3.6224 0.6533,4.1271 0.5938,0.7126 1.6033,1.0986 2.9097,1.0986l1.1877 0 0 0.7126 -14.252 0 0 -0.7126 1.1877 0c1.3955,0 2.4347,-0.5047 2.9988,-1.3658 0.3563,-0.5345 0.5642,-1.8409 0.5642,-3.8599l0 -26.1287 -4.0678 0c-1.5143,0 -2.6722,0.1485 -3.3254,0.3563 -0.8314,0.2969 -1.6628,0.9502 -2.2269,1.8112 -0.5642,0.8611 -0.9798,2.1378 -1.0986,3.6521l-0.9205 0 0.2376 -7.7198 27.7914 0zm16.8351 15.2318l12.4408 12.1736c2.5832,2.4941 5.8196,5.5523 9.6201,5.8492l0 0.7126 -16.1522 0 0 -0.7126c1.0986,0 2.7316,-0.6829 2.7316,-2.019 0,-0.3563 -0.1188,-0.772 -0.2375,-1.0392 -1.8706,-3.7412 -9.9764,-9.9764 -13.1831,-13.094l0 10.9265c0,1.7518 0.1187,2.9988 0.2969,3.5036 0.1484,0.4157 0.5344,0.8611 1.0392,1.1283 0.6829,0.386 1.4846,0.5938 2.2566,0.5938l1.1579 0 0 0.7126 -14.252 0 0 -0.7126 1.158 0c1.3658,0 2.405,-0.4157 2.9989,-1.247 0.386,-0.5048 0.5938,-1.9003 0.5938,-3.9787l0 -22.0906c0,-1.7518 -0.1484,-2.9395 -0.3266,-3.5036 -0.1485,-0.386 -0.5048,-0.8314 -1.0095,-1.0986 -0.6829,-0.4157 -1.5143,-0.6235 -2.2566,-0.6235l-1.158 0 0 -0.7126 14.252 0 0 0.7126 -1.1579 0c-0.7423,0 -1.5737,0.2078 -2.2566,0.5938 -0.4751,0.2375 -0.8908,0.7423 -1.0392,1.247 -0.1485,0.5048 -0.2969,1.7222 -0.2969,3.3849l0 10.5702c0.2969,-0.2969 1.4549,-1.3955 3.3848,-3.1473 4.8991,-4.4834 7.9871,-7.512 8.9372,-8.9966 0.4454,-0.7126 0.6532,-1.4252 0.6532,-1.9893 0,-0.4157 -0.1781,-0.8611 -0.5047,-1.158 -0.3266,-0.3266 -0.9799,-0.5047 -1.7815,-0.5047l-0.772 0 0 -0.7126 12.5002 0 0 0.7126c-0.7126,0 -1.4252,0.1484 -1.9894,0.3266 -0.5938,0.1781 -1.3658,0.6532 -2.1972,1.2173 -0.8313,0.5939 -1.9299,1.6331 -3.2067,2.9098 -0.3266,0.3266 -2.0487,2.0487 -5.0772,5.0179l-5.1664 5.0476zm40.3807 -15.9444c4.3646,0 8.1652,1.6924 11.3719,5.0179 3.2067,3.3254 4.81,7.5119 4.81,12.5001 0,5.107 -1.633,9.4123 -4.8397,12.7674 -3.2067,3.3849 -7.1854,5.107 -11.7579,5.107 -4.6319,0 -8.5512,-1.6924 -11.6688,-4.9585 -3.1177,-3.2661 -4.7507,-7.6011 -4.7507,-12.8565 0,-5.3445 1.8409,-9.7982 5.4633,-13.1534 3.1176,-2.9395 6.9478,-4.424 11.3422,-4.424l0.0297 0zm-0.4751 1.6627c-3.0285,0 -5.4633,1.1877 -7.2744,3.4145 -2.2269,2.7911 -3.3849,6.9479 -3.3849,12.3815 0,5.5523 1.1877,9.8873 3.5036,12.8564 1.7815,2.2566 4.2162,3.4146 7.1557,3.4146 3.1473,0 5.7899,-1.2768 7.8386,-3.7412 2.0487,-2.4941 3.1176,-6.4431 3.1176,-11.8172 0,-5.8196 -1.1579,-10.2437 -3.4145,-13.0644 -1.7815,-2.2862 -4.335,-3.4442 -7.5417,-3.4442z"/>
   <path id="_55699264" class="fil3" d="M234.898 145.706c-1.7221,1.3065 -3.5036,2.8207 -5.2257,4.2162 -0.5345,0.4157 -4.1272,2.9395 -4.0381,3.3255l0.3563 0.3266c0.5939,0.9205 0.9798,0.1782 1.6924,-0.2078 1.8409,-0.8017 3.5927,-0.8611 4.2756,1.5736 0.386,1.0689 0.5642,2.316 0.683,3.4146 0.4156,1.7518 0.7126,3.563 0.9501,5.3445 0.386,2.3456 0.3563,5.1663 0.4157,7.5416 0.0297,1.1283 -0.0297,11.1047 0.3266,11.1047 0.475,-0.1484 1.0095,-0.2969 1.4549,-0.475 1.2767,-6.9182 3.7411,-13.6879 6.6509,-20.0716 1.158,-2.7613 2.6722,-5.5523 4.2756,-8.0761 1.93,-2.6426 4.9288,-6.6213 8.6403,-6.3243 1.3361,0.6235 1.8112,1.6627 2.3753,2.791 -11.3719,16.5976 -23.4267,32.8983 -34.6502,49.5553l0.8017 1.8112 1.2768 1.3658 1.633 1.0096 1.9893 0.6235c4.0084,0.7126 8.9372,0.2672 12.4408,-1.8409 1.8706,-1.2471 3.4443,-2.9098 3.4443,-5.2851l0.089 -0.4157c-1.6924,1.3064 -3.5333,2.4644 -5.4335,3.3848 -4.0975,1.4549 -8.8184,2.3754 -12.9159,0.4751l-1.0986 -0.861 -0.6235 -1.3065c10.7484,-15.2021 21.2295,-30.5824 31.8294,-45.8142l4.2756 -6.1165 1.6331 -2.3753c-0.4157,-0.6235 -0.6532,-1.3361 -1.0392,-1.9597 -1.5143,-2.7019 -4.4241,-1.4845 -6.5916,-0.1484 -7.2447,5.968 -11.9954,14.2817 -16.0335,22.6547 -0.0593,-2.405 -0.2078,-5.0179 -0.2672,-7.4229 -0.3563,-2.4644 -0.772,-4.8991 -1.2767,-7.3338 -0.386,-0.7126 -0.6236,-1.5737 -0.8908,-2.3754 -0.475,-0.6235 -1.0095,-1.4549 -1.4252,-2.1081z"/>
   <path id="_55758776" class="fil4" d="M224.344 122.228c-4.1606,2.8881 -8.5209,5.7435 -12.9478,8.2706 0.233,0.3938 0.7656,0.9518 1.1317,1.2143 0.4993,-0.2297 1.0984,-0.6235 1.5977,-0.8533 1.4312,-0.4595 2.5296,-1.4769 3.8943,0.0985l-0.2996 2.5271 -0.699 6.6297 5.725 5.9404c0.7988,-5.5138 1.9971,-10.9291 2.2634,-16.4757 0,-2.5599 -0.1664,-4.8245 -0.6657,-7.3516z"/>
   <path id="_55756736" class="fil3" d="M220.29 158.889l0.5939 -3.6817 0.5641 -3.5927 0.5938 -3.6818c0.5048,-3.0285 1.0392,-6.354 1.5737,-9.3826l0.4157 -2.2268 0.2672 -2.2566 0.2672 -2.3753 0.1188 -2.316c0,-2.3159 -0.1485,-4.3647 -0.5938,-6.6509 -3.7115,2.6129 -7.6308,5.196 -11.5501,7.4823 0.2078,0.3563 0.6829,0.861 1.0095,1.0986 0.772,-0.4157 1.8409,-0.9502 2.5832,-1.3065 0.9204,-0.4453 1.7221,-0.089 2.3159,0.6236l-0.2672 2.2862c-1.633,16.0632 -3.3848,32.3342 -5.0476,48.3974 -0.1187,1.5143 -0.4156,2.1675 0.3563,3.4146 1.158,1.8705 2.5832,1.6924 4.4835,1.0095 3.3848,-2.1081 6.2946,-4.9882 8.6996,-8.1652 -0.3563,-0.0594 -1.0986,-0.5939 -1.3064,-0.8611 -1.158,1.4549 -3.8302,5.0179 -6.0274,4.1865 -1.4846,-1.3361 -1.3658,-2.9394 -1.3658,-4.8694 0.2672,-3.3255 0.8017,-6.5322 1.158,-9.8576l0.5344 -3.6818 0.6235 -3.5927z"/>
   <path id="_55754248" class="fil3" d="M190.45 145.646c-0.6829,-0.9204 -1.2767,-1.4548 -2.5238,-1.4548 -1.6033,-0.1782 -2.791,1.7518 -2.9988,2.9988 0.3266,1.5143 1.6033,2.2566 3.1473,1.9003 1.7518,-0.2969 2.3753,-1.93 2.3753,-3.4443z"/>
   <path id="_55718000" class="fil3" d="M200.634 143.182c-0.386,-0.6235 -0.8017,-1.0986 -1.5737,-1.2767 -1.6034,-0.3563 -2.9098,0.4751 -3.5927,1.9003 -0.5048,2.5534 0.772,3.3254 3.3255,2.791 1.4846,-0.9205 1.8409,-1.7221 1.8409,-3.4146z"/>
   <path id="_55753304" class="fil3" d="M206.484 181.722c-0.7126,0.5938 -1.5736,1.247 -2.2566,1.8409 -1.1579,0.6532 -2.6722,1.5736 -3.4442,0 -0.4157,-2.5832 0.386,-5.3148 0.7423,-7.898 0.2375,-1.5143 0.5345,-3.0582 0.8908,-4.5428 -1.93,1.0095 -3.5334,1.9893 -5.6415,2.5832 0.5345,-1.1877 1.2174,-2.4941 1.6331,-3.6818 0.772,-2.7613 0.9798,-5.107 -0.0891,-7.8683 -0.9501,-1.3955 -1.3658,-1.6033 -2.8504,-2.4644 -0.0594,2.2863 -0.2078,4.6022 -0.4157,6.8885 -0.3563,2.2862 -0.9501,4.4537 -1.4846,6.6509 -0.9204,2.2566 -1.9596,4.6913 -3.0582,6.8588 -1.4252,2.6722 -3.1473,5.1366 -4.9585,7.5416 -1.3361,1.2471 -2.3456,2.0488 -3.949,2.9395 -3.6818,0.8017 -4.1865,-2.1972 -4.81,-4.8991 -0.2079,-6.5916 1.7518,-10.5405 5.2257,-15.7663l1.9003 -2.5832 2.1674 -2.3753 2.316 -2.1081 2.5832 -1.9003 2.7316 -1.5736 2.9692 -1.4252 3.266 -1.158 3.6224 -0.9501c2.1675,-0.4157 4.3053,-0.8017 6.5025,-1.0095 0.2969,-1.3065 0.7126,-2.2566 0.4751,-3.6818 -1.158,-1.0689 -3.3255,-0.0891 -4.6022,0.2672 -6.8588,2.2566 -13.2722,5.879 -18.9136,10.3921 -3.0583,2.9395 -5.968,5.968 -8.5512,9.3232 -1.6331,2.5238 -3.0583,5.0476 -4.3647,7.7495 -1.7518,4.4537 -3.0879,10.8375 -0.386,15.2912 2.2863,2.2863 4.335,0.8017 6.6509,-0.2078l2.7911 -1.9597 2.7019 -2.5238c3.9787,-4.4537 7.4229,-9.145 10.4218,-14.4004 -1.1283,4.9882 -2.2566,10.8077 -1.2471,15.885 4.6616,-1.9893 9.0263,-4.7804 12.6487,-8.3434 -0.2969,-0.1187 -1.0392,-0.6235 -1.2174,-0.8907z"/>
   <path id="_55743808" class="fil3" d="M224.907 54.9209c0.4454,-1.8408 3.7412,-2.4644 5.3742,-2.4347l0.0297 1.3065c-1.1283,-0.0594 -3.6224,0.089 -3.8896,1.5142 -0.2376,1.158 2.5238,2.6129 2.8801,3.8896 0.386,1.3956 -0.9205,2.7911 -2.0488,3.2661 -0.861,0.3563 -2.1081,0.5939 -3.5629,0.6235l-0.0891 -1.247c1.0392,0.0297 3.8599,-0.2672 4.1271,-1.4846 0.386,-1.8409 -3.4442,-2.9988 -2.8207,-5.4336zm7.8683 -1.6924c2.3159,0.8611 5.0773,1.5143 7.512,2.0487 0.6829,0.1188 1.3361,0.297 1.7518,0.3563 1.2767,0.2673 1.0392,0.0297 0.6532,1.544 -1.4846,-0.5047 -2.9692,-0.9501 -4.3944,-1.3064 -0.6829,3.2661 -1.6924,6.5321 -2.2268,9.8576l-1.6925 -0.4157c0.9502,-3.2067 1.7519,-6.5321 2.5535,-9.7685 -2.0487,-0.5048 -3.563,-0.8314 -4.5131,-0.9502l0.3563 -1.3658zm13.9551 4.7507l1.2767 0.6235c-1.0986,2.1972 -4.5428,7.6011 -2.3456,9.8279 1.6924,1.6925 4.335,1.3956 5.5523,-0.6235 1.1877,-1.9893 2.2566,-4.3647 3.1473,-6.5321l1.3955 0.6532c-1.1579,2.4941 -2.9691,7.3338 -5.4632,8.5215 -1.0689,0.5344 -2.8504,0.4157 -3.949,-0.0594 -5.3742,-2.4644 -1.2768,-8.8778 0.386,-12.4111zm14.2817 7.6604c2.3159,1.7221 7.9276,6.0274 5.4929,9.3529 -2.5238,3.4739 -8.8184,2.019 -11.8173,-0.1485 -0.0594,-0.0593 -0.2375,-0.1484 -0.2672,-0.1781 2.1972,-2.9098 4.335,-6.1759 6.5916,-9.0263zm0.5047 1.8706l-5.0179 6.9182c2.2863,1.6033 6.9776,2.3456 8.7591,-0.3563 1.4845,-2.2566 -2.1378,-5.493 -3.7412,-6.5619zm12.0548 7.6605c1.3955,1.4548 2.6426,2.6128 3.6224,3.5036l-0.8907 0.9204c-0.7423,-0.8611 -1.7519,-1.8112 -2.5238,-2.6722l-2.9692 2.6722c0.9204,0.9798 1.7221,1.7221 2.2269,2.2269l-0.9502 0.8907c-0.5938,-0.772 -1.3955,-1.633 -2.0784,-2.405l-2.791 2.5238c0.772,0.8611 1.8409,1.93 2.5832,2.8504l-0.9501 0.9501c-0.7126,-0.772 -1.93,-2.1081 -3.5927,-3.9787 0.386,-0.3266 0.9798,-0.861 1.6627,-1.4845 1.7221,-1.544 3.6224,-3.2958 5.3742,-4.8101 0.4157,-0.386 0.8907,-0.8313 1.2767,-1.1876zm6.9182 6.5024l0 0.0297 -0.8908 12.5893 6.3243 -5.5524 0.8908 1.0986c-0.4751,0.4454 -1.1283,0.9502 -1.7815,1.4846 -2.2566,1.9003 -4.721,3.9193 -7.0369,5.8196 0.2078,-3.177 0.5344,-6.3243 0.6235,-9.4717 0.0297,-0.8907 0.2969,-2.2862 0.2969,-3.2067l-6.7994 5.9681 -0.9501 -1.2471 9.3232 -7.512zm8.0761 11.8767c1.4252,2.8801 3.3255,5.4929 5.0179,8.1949 0.2969,0.4454 0.5641,0.7423 0.6235,0.8017l-1.2173 0.7422c-0.7423,-1.3955 -1.5143,-2.7316 -2.2863,-3.9786 -2.7316,1.8705 -5.7899,3.563 -8.4324,5.5523l-0.9502 -1.4846c2.8504,-1.633 5.8493,-3.5036 8.6403,-5.2554 -1.1283,-1.7815 -1.9893,-3.0879 -2.5832,-3.8302l1.1877 -0.7423zm7.0369 13.9254c0.7423,1.8705 1.4549,3.4145 2.0191,4.6022l-1.1283 0.5047c-0.386,-1.0689 -0.9205,-2.3456 -1.3658,-3.4145l-3.7412 1.3658c0.4751,1.2767 0.9205,2.2566 1.2174,2.8801l-1.2174 0.4751c-0.2969,-0.9205 -0.6829,-2.1081 -1.0095,-2.9989l-3.563 1.3064c0.4454,1.158 0.8314,2.4941 1.3658,3.5927l-1.2767 0.5345c-0.3563,-0.9798 -0.9799,-2.6723 -1.8112,-5.0179 3.4442,-1.2768 7.0666,-2.6426 10.5108,-3.8302zm0.5939 10.4811c1.9299,-0.1187 3.7411,2.4941 4.3646,3.9787l-1.2173 0.5345c-0.3563,-1.0393 -1.4846,-3.1771 -2.9098,-2.9989 -1.5143,0.2078 -1.2174,4.335 -3.2958,4.6319 -2.4941,0.3563 -4.0677,-2.1675 -4.9288,-4.0975l1.1283 -0.5641c0.3563,0.9798 1.6627,3.3848 2.9692,3.2067 1.8408,-0.2375 1.3955,-4.5131 3.8896,-4.6913zm6.5321 15.8554c-0.0594,2.8801 -0.3266,6.829 -2.4644,8.9668 -1.3955,1.3955 -4.038,0.7126 -5.3148,-0.386 -2.405,-2.0784 -3.3848,-5.8492 -3.3848,-8.9965 3.7114,0.2375 7.4526,0.4157 11.164,0.4157zm-1.247 1.4845l-8.5512 -0.2969c0,2.8504 1.8706,7.0666 5.196,7.0666 2.6129,0 3.3552,-4.5725 3.3552,-6.7697zm-9.7983 8.6403c0.2969,0.1782 0.9799,0.5642 1.8409,1.0392 1.3361,0.7126 9.1747,5.107 9.1747,5.2851 -2.9394,1.6331 -6.2352,3.3849 -9.2638,4.7804 -0.7719,0.3563 -1.4845,0.772 -2.0784,1.0986l-0.8017 -1.3955c0.8017,-0.3266 1.8409,-0.9205 2.6129,-1.2768 0.5642,-0.2375 1.0986,-0.5344 1.544,-0.7719l0 -5.6118c-0.6532,-0.2969 -1.1283,-0.5938 -1.4846,-0.7126 -1.1877,-0.5047 -3.1176,-0.8907 -1.5737,-2.4347l0.0297 0zm4.0678 3.7709c0,1.4548 0.0297,3.0582 0.0297,4.5428 1.3955,-0.7126 3.0285,-1.544 4.4537,-2.1675 -1.4549,-0.6235 -3.0879,-1.6331 -4.4834,-2.3753zm5.8789 9.7982c-0.6235,2.3159 -1.3064,5.196 -1.5439,7.6604 -0.0891,0.8017 -0.297,1.93 -0.297,2.7911l-1.4251 -0.2376c0.4156,-1.5439 0.7422,-3.0582 0.9798,-4.4834 -3.2958,-0.5048 -6.651,-1.2174 -9.9764,-1.544l0.2969 -1.7221c3.2364,0.7126 6.6806,1.3064 9.917,1.8706 0.386,-2.0784 0.5938,-3.6224 0.6235,-4.5725l1.4252 0.2375zm-12.8861 8.284c1.0392,1.3064 8.373,8.9668 8.373,9.5904 -2.0784,0.386 -4.3944,0.7126 -6.5322,0.9501 -2.019,0.2375 -4.0974,0.5641 -6.1164,0.9204l-0.3267 -1.5736c0.1782,-0.0297 0.5939,-0.1485 1.158,-0.1782 1.0392,-0.089 2.3457,-0.2969 3.4443,-0.4156l1.8408 -5.3149c-0.5344,-0.475 -0.9501,-0.8907 -1.1876,-1.1282 -0.7423,-0.6533 -2.4051,-1.6925 -1.3955,-2.316 0.1187,-0.0891 0.6235,-0.5344 0.7423,-0.5344zm2.6128 4.9288c-0.475,1.3955 -0.9501,2.8801 -1.4549,4.2756 1.5737,-0.1485 3.3255,-0.3266 4.8992,-0.5939 -1.0986,-1.0985 -2.3457,-2.5237 -3.4443,-3.6817zm-11.4906 13.3909l2.8504 -4.4834c3.0285,2.0487 6.2649,3.9193 9.4419,5.7008l-0.8611 1.3955c-2.7019,-1.8409 -5.7008,-3.563 -8.5215,-5.2554 -0.9204,1.5736 -1.5736,2.7019 -1.8705,3.266l-1.0392 -0.6235zm3.4145 13.6879c3.5927,-4.1272 -2.8801,-10.7781 -6.8291,-6.4431 -3.5927,3.949 2.791,11.0453 6.8291,6.4431zm0.8907 0.8016c-3.1176,3.9193 -9.0262,1.7222 -9.9764,-2.88 -1.3361,-6.265 7.126,-10.3624 10.5703,-4.1272 1.2173,2.1675 0.9501,5.0773 -0.5939,7.0072zm-11.6985 11.3126c1.0095,-1.5737 2.5238,-7.9277 0.1782,-8.8482 -2.8207,-1.0985 -6.0274,0.386 -6.7994,2.7614l1.7518 1.5142c1.2471,1.0393 1.3658,0.683 0.2078,2.0191 -1.1876,-0.9798 -2.3159,-2.1081 -3.563,-3.0286 1.2471,-2.6722 3.8303,-5.6414 7.126,-5.4335 0.8017,0.0296 1.5737,0.5047 2.2269,0.9501 2.8504,1.9893 1.3361,8.3433 0.1782,10.7484l-1.3065 -0.6829zm-4.8694 4.9585l-1.2174 0.9798c-0.5344,-0.6235 -1.0095,-1.3955 -1.5142,-1.9597 -1.8706,-2.0784 -3.6521,-4.6319 -5.5227,-6.7103l1.2174 -0.9798c1.2173,1.544 2.1675,2.791 2.7316,3.4739 0.8017,0.9799 1.8706,2.2269 2.6723,3.2364 0.7423,0.8908 1.3361,1.5737 1.633,1.9597zm-10.0358 -5.0179c0,1.2173 0.1485,12.708 0.0594,12.708 -3.6224,-2.1972 -7.0963,-4.81 -10.8078,-6.8588 0.772,-1.3955 0.4157,-1.633 1.7815,-0.8016 0.8908,0.5641 1.9894,1.3361 2.9098,1.9893l4.8398 -2.8207c-0.0297,-0.6532 -0.2376,-4.2756 -0.3266,-4.3647 0.1484,-0.0594 1.5439,0.1188 1.5439,0.1485zm-1.247 5.4335c-1.2471,0.6533 -2.6426,1.6034 -3.8896,2.2566 1.3361,0.9205 2.7019,1.9597 4.0974,2.791 -0.1781,-1.5736 -0.1781,-3.5333 -0.1781,-5.1069l-0.0297 0.0593zm-8.6997 11.9361c-1.8706,0.7126 -3.4442,1.3955 -4.6319,1.9299l-0.475 -1.1579c1.0985,-0.3266 2.3456,-0.8908 3.4442,-1.2768l-1.3064 -3.7708c-1.2768,0.4751 -2.2566,0.8907 -2.9098,1.1877 -0.5939,-1.544 -0.5345,-1.2174 1.0095,-1.6925 0.6829,-0.1781 1.2173,-0.386 1.544,-0.5047l-1.2174 -3.563c-0.8017,0.2672 -1.4549,0.475 -1.8112,0.5641 -0.5938,0.1782 -1.247,0.5642 -1.8409,0.7126l-0.5047 -1.2767c0.9798,-0.3266 2.7019,-0.9205 5.0772,-1.7518 0.1485,0.475 0.4454,1.247 0.7126,2.1081 0.8908,2.7613 1.9894,5.7305 2.9098,8.4918zm-14.9943 5.3742l-1.4252 0.2078c-0.1484,-2.2565 -0.475,-4.7506 -1.0095,-6.9181 -0.4454,-1.7221 -1.9002,-2.9395 -3.8005,-2.7317 -3.6521,0.386 -2.8207,4.9585 -2.5535,7.4526 0.0297,0.4751 0.2672,1.6331 0.5938,3.3849l-1.5439 0.2078c-0.5048,-3.8896 -2.4347,-11.4906 3.2957,-12.2032 5.8493,-0.7126 5.9087,6.74 6.4431,10.5999zm-16.0038 3.177l0 -0.0297 -8.4324 -9.3826 -0.4157 8.4028 -1.4252 -0.1188c0.0297,-0.6532 0.1485,-1.4252 0.1782,-2.3159 0.1781,-2.9989 0.475,-6.0868 0.7126,-9.1154 2.6425,3.2364 5.7898,6.2946 8.4918,9.4717l0.4157 -9.0263 1.5439 0.1781 -1.0689 11.9361zm-14.7864 -1.3064l-1.5737 -0.0594c0.1782,-3.7115 0.4454,-7.4526 0.386,-11.1641l1.544 0.0594c-0.1485,3.7115 -0.3563,7.4526 -0.3563,11.1641zm-6.5916 -1.1877l-1.5142 0.4157c-0.5345,-3.2364 -1.3361,-6.6806 -2.0191,-9.8873 -2.1378,2.5237 -4.6022,5.1366 -6.6509,7.7495l-1.0986 -1.0986c1.8409,-2.0191 3.8302,-4.0975 5.6117,-6.1165 0.1782,-0.2078 2.9989,-3.2958 3.0286,-3.2661 0.5641,3.0583 1.4252,6.265 2.019,9.2935 0.1188,0.7423 0.6235,2.1675 0.6235,2.9098zm-16.0928 -3.5333c-1.8706,-0.8017 -3.4739,-1.3658 -4.6913,-1.8112l0.4454 -1.1877c1.0689,0.5345 2.2565,0.9799 3.3551,1.4846l1.6924 -3.6224c-1.247,-0.5641 -2.2565,-0.9204 -2.9097,-1.1876l0.5344 -1.1877c0.9205,0.4157 1.93,0.9798 2.8504,1.3955l1.5737 -3.4145c-0.7423,-0.3563 -1.3658,-0.6829 -1.6925,-0.8314 -0.5344,-0.2375 -1.2767,-0.5048 -1.8111,-0.772l0.5344 -1.2767c0.9204,0.4453 2.5832,1.2173 4.8397,2.2862 -1.5439,3.3255 -3.266,6.7697 -4.7209,10.1249zm-9.917 -17.3102c0.5047,2.2565 1.0986,4.6318 1.5439,6.9181 -1.2173,0.0297 -2.9098,0.3266 -3.4442,1.5143 -0.6532,1.5439 1.4549,2.8207 2.4941,3.2958 0.8611,-1.8409 1.5737,-3.2661 1.9596,-4.1569 0.7126,-1.5736 1.544,-3.4442 2.2269,-5.0476l1.3955 0.6533c-1.5439,3.3254 -3.1176,6.7993 -4.6913,10.1248 -2.0784,-0.9798 -7.987,-4.3053 -3.563,-6.6509 0.5345,-0.2969 1.2768,-0.5048 1.9894,-0.5642 -0.3563,-1.6627 -0.8314,-3.5927 -1.4252,-5.7008l1.5143 -0.3859zm-7.8089 4.3943c-1.0689,1.4252 -4.4538,0.8017 -5.9087,0.1485l0.4751 -1.2174c0.9798,0.5048 3.3848,1.2768 4.1865,0.1188 0.8314,-1.2174 -2.0784,-3.9193 -0.8314,-5.6117 1.4846,-2.0191 4.4241,-1.2768 6.3837,-0.4751l-0.4156 1.1877c-1.0096,-0.4454 -3.5333,-1.3362 -4.3647,-0.2376 -1.0689,1.4252 1.9596,4.0381 0.4751,6.0868zm-9.6795 -2.9988c-1.3361,-1.0096 -1.3955,-0.683 -0.4454,-1.9894 1.8706,-2.6128 4.0381,-5.1663 5.9086,-7.8683l1.2174 0.9205c-1.1283,1.4846 -2.4644,3.2957 -3.6521,4.7506 -0.9798,1.2471 -2.1081,2.8504 -3.0285,4.1866zm-4.8694 -3.86c-0.8611,-1.2767 -5.5821,-7.126 -7.0964,-7.8682l1.0689 -0.9799c0.9502,1.2471 1.9597,2.4347 2.9395,3.5333 0.4157,-0.386 0.9502,-0.8907 1.544,-1.4252 1.9299,-1.6924 4.038,-3.5927 5.7899,-5.4929l1.1876 1.3064c-2.5832,2.0784 -5.1069,4.4538 -7.5713,6.6806 1.3955,1.544 2.4644,2.6723 3.2067,3.2958l-1.0689 0.9501zm0.3859 -14.4895c-1.8408,0.1485 -3.9489,0.2672 -5.7601,0.3563 -0.5345,0 -6.8885,0.4157 -6.9479,0.3563 0.2969,-0.5344 0.772,-1.3361 1.2471,-2.2269 1.2767,-2.2565 2.6722,-4.5725 3.949,-6.829 0.4156,-0.7423 0.8313,-1.4846 1.1282,-2.0785 1.3659,0.683 1.6331,0.4157 0.8611,1.7519 -0.5641,0.9204 -1.2174,2.019 -1.8112,2.9691l3.0582 4.721c0.6236,-0.0891 4.2756,-0.5048 4.335,-0.5641 0.1188,0.2375 -0.0297,1.3064 -0.0297,1.5439l-0.0297 0zm-5.4929 -0.9501c-0.7423,-1.2768 -1.7221,-2.5238 -2.4644,-3.7709 -0.8314,1.3362 -1.93,2.8504 -2.5535,4.246 1.5143,-0.2079 3.5036,-0.4454 5.0773,-0.4454l-0.0594 -0.0297zm-9.917 -3.3849c-0.2079,-0.475 -0.8611,-1.6627 -1.8112,-3.3551 -0.5938,-1.0392 -1.4252,-2.405 -2.0487,-3.4146 -0.386,-0.6829 -1.2768,-1.6627 -1.6034,-2.3159l1.2174 -0.7126c0.7126,1.3955 1.4549,2.7613 2.2268,4.0084 1.3065,-0.8017 2.8208,-1.7518 4.1272,-2.5238 1.4252,-0.8314 3.0285,-1.9003 4.3943,-2.8504l0.9205 1.4846c-2.9098,1.5439 -5.879,3.3848 -8.7294,5.1069 1.0986,1.8112 1.93,3.088 2.5238,3.8599l-1.2173 0.7126zm-6.651 -13.5987l-0.5641 -1.4549c1.6034,-0.6532 3.3552,-1.1877 4.9585,-1.7518 2.4347,-0.8908 4.2459,-1.7518 5.4633,-2.2566l0.5344 1.4252c-2.6722,0.9798 -5.3742,2.1081 -8.0167,3.0879 -1.1283,0.386 -1.93,0.772 -2.3754,0.9502zm1.0689 -6.3837c-1.6924,0.6235 -4.1865,-1.6628 -5.0772,-2.9692l1.0392 -0.8017c0.475,0.772 1.0689,1.4549 1.6627,1.9003 3.2661,2.5535 2.0487,-3.9787 4.0975,-4.7507 2.3159,-0.861 4.4537,1.2174 5.6414,2.9692l-0.9502 0.772c-0.6532,-0.9799 -3.7708,-4.3053 -4.4537,-1.544 -0.3563,1.4549 -0.2375,3.8005 -1.9597,4.4241zm-7.0369 -14.9943l-0.2375 -1.544 4.9882 -0.6829 -1.4549 -7.0666 -4.6319 0.8017 -0.2672 -1.6034c3.6817,-0.386 7.3932,-1.0689 11.0453,-1.6924l0.2375 1.6033c-1.7815,0.1782 -3.5927,0.4751 -5.3445,0.7126l1.4846 7.0666 4.9585 -0.861 0.2375 1.4846c-0.9798,0.1484 -2.019,0.386 -3.0285,0.5047 -2.1081,0.2673 -4.2459,0.6532 -6.3837,0.9799 -0.6532,0.089 -1.2471,0.2375 -1.6034,0.2969zm-0.9501 -17.429c0.0297,-2.0191 -0.0594,-3.7115 -0.1485,-5.0179l1.2471 -0.0594c-0.0297,1.1283 -0.0297,2.5535 -0.0297,3.6818l4.0084 0.1484c0,-1.3658 -0.0297,-2.4347 -0.0891,-3.1473l1.3064 0c0,0.9798 -0.1484,2.1675 -0.1484,3.177l3.7708 0.1485c0.0297,-1.2471 0.0891,-2.6129 0.0891,-3.8599l1.3658 -0.0297c-0.0297,1.0392 -0.0891,2.8504 -0.1782,5.3445 -3.1176,-0.1782 -6.3243,-0.1782 -9.4419,-0.3266 -0.6235,-0.0297 -1.2174,-0.0297 -1.7518,-0.0594zm13.2722 -14.0442l-1.4252 5.107c-3.563,-1.0095 -7.126,-1.9003 -10.689,-2.702l0.386 -1.5736c3.1176,1.0392 6.4727,1.7815 9.6794,2.5238 0.4454,-1.7815 0.7423,-3.0286 0.8611,-3.6521l1.1877 0.2969zm-7.0667 -4.4834c-1.7815,-0.4157 -2.4644,-3.7709 -2.4347,-5.3742l1.3065 -0.0297c-0.0594,1.0986 0.1484,3.5927 1.5142,3.8896 1.3955,0.2969 2.6723,-3.3551 4.8398,-2.9395 2.4644,0.4454 2.9098,3.5927 2.9395,5.6711l-1.2471 0.0891c0.0297,-1.0689 -0.2078,-3.8599 -1.4846,-4.1271 -1.9299,-0.4157 -2.9395,3.4145 -5.4336,2.8207zm0.2673 -11.9954l0.6532 -1.4252c3.3848,1.5439 6.5915,3.3551 10.1248,4.7209l-0.6532 1.3955c-1.7221,-0.8016 -3.6817,-1.8112 -5.4039,-2.5831 -1.5142,-0.6829 -3.2363,-1.3659 -4.7209,-2.1081zm2.1081 -6.2353l0.0297 0.0297 11.936 -4.0974 -7.5714 -3.6818 0.683 -1.2471c1.4845,0.6829 3.1473,1.6628 4.6022,2.3754 0.475,0.2375 5.5523,2.8801 5.5523,2.8801 -1.158,0.4156 -12.0251,4.1271 -12.0251,4.1271l8.1355 3.9193 -0.772 1.3658 -10.5702 -5.6711zm14.4004 -19.0917c-0.8313,1.4549 -1.8409,8.0167 0.5939,8.7887 2.3159,0.7423 4.3943,0.0297 5.6414,-1.633 0.2672,-0.386 0.7423,-1.1877 0.8907,-1.6925 -0.9798,-0.7126 -2.019,-1.5736 -3.1176,-2.1971l0.8611 -1.158c1.2173,0.8017 2.6425,1.8409 3.8005,2.7019 -0.9798,2.791 -3.3255,6.0274 -6.6212,6.0274 -2.7911,0 -4.1272,-2.6425 -4.3647,-5.0475 -0.2079,-1.9003 0.0594,-4.0975 0.9501,-6.3838l1.3658 0.5939zm4.3944 -5.9977l1.1877 -1.0689c2.3753,2.7613 4.9288,5.6711 7.4526,8.3136l-1.158 1.0095c-1.2768,-1.4548 -2.316,-2.6425 -2.9098,-3.3254 -1.4846,-1.6034 -3.0879,-3.3255 -4.5725,-4.9288zm4.8397 -4.4538c1.4549,-1.3955 2.6129,-2.6425 3.5036,-3.6224l0.9205 0.8908c-0.8611,0.7423 -1.8409,1.7518 -2.6723,2.5238l2.6723 2.9691c0.9798,-0.9204 1.7221,-1.7221 2.2269,-2.2268l0.8907 0.9501c-0.772,0.5938 -1.633,1.3955 -2.405,2.0784l2.5238 2.791c0.6235,-0.5641 1.158,-0.9798 1.4252,-1.247 0.4157,-0.4157 0.9798,-0.9798 1.4252,-1.3361l0.9501 0.9501c-0.772,0.7126 -2.1081,1.9299 -3.9787,3.5927 -1.6627,-1.9597 -3.6224,-4.0084 -5.3445,-5.9383 -0.6235,-0.7423 -1.4252,-1.6034 -2.1378,-2.3754zm8.9075 -7.3635l0 0 12.2627 3.0879 -4.3944 -7.215 1.2768 -0.683c1.3955,2.316 2.7613,4.8992 4.0974,7.2448 0.0891,0.1782 1.633,2.6129 1.544,2.7019 -2.2863,-0.475 -4.6319,-1.1876 -6.8885,-1.6924 -0.5641,-0.1187 -5.4336,-1.3955 -5.4336,-1.3955l4.6913 7.7198 -1.3658 0.7126 -5.7899 -10.4811zm15.5881 -4.0381c-0.5641,-1.8112 1.7222,-4.2162 3.0583,-5.0179l0.772 1.0689c-0.9205,0.5048 -2.8801,2.1081 -2.4051,3.4146 0.4751,1.3658 4.4241,0.3563 5.1664,2.3753 0.8314,2.3753 -1.3361,4.4241 -3.0879,5.6117l-0.7423 -1.0095c0.861,-0.5344 3.0582,-2.2566 2.5831,-3.5333 -0.6532,-1.7518 -4.6022,-0.5641 -5.3445,-2.9098zm7.8386 -6.4431l1.4549 -0.5344c0.4751,1.158 0.9205,2.6129 1.3065,3.8005 0.1187,0.4454 0.2672,0.9502 0.3563,1.1877 0.861,2.4347 1.6627,4.2756 2.1675,5.4929l-1.4549 0.5345c-0.8908,-2.702 -1.9597,-5.4336 -2.9395,-8.1058 -0.386,-1.0689 -0.7423,-1.93 -0.8908,-2.3754zm8.1356 1.1877c-0.1188,-1.8706 2.4941,-3.7708 3.9786,-4.3647l0.5345 1.2174c-1.0392,0.3563 -3.177,1.5143 -2.9989,2.9098 0.0891,0.861 2.9692,1.633 3.5036,1.9002 1.7518,0.8611 1.3065,3.0583 0.0891,4.3647 -0.6235,0.7126 -1.7221,1.3658 -3.0582,1.9597l-0.5642 -1.1283c1.93,-0.6829 4.9585,-3.4739 1.7221,-4.335 -1.0688,-0.2672 -3.1473,-1.158 -3.2066,-2.5238z"/>
   <g>
    <path id="_55696128" class="fil0" d="M210.319 49.2682c0.3567,-0.9452 0.7159,-1.293 1.0852,-1.3089 0.3664,-0.016 0.7297,0.2942 1.091,1.2492 0.1904,1.9655 0.3284,3.932 0.3304,5.8977 0.0023,1.9688 -0.1462,3.9394 -0.3777,5.9122 -0.3412,1.0478 -0.6744,1.4233 -1.0148,1.4261 -0.3395,0.0028 -0.6746,-0.345 -1.0195,-1.3667 -0.2296,-1.961 -0.3725,-3.9261 -0.3777,-5.8948 -0.0052,-1.9686 0.1064,-3.9409 0.2831,-5.9148z"/>
    <path id="_55718432" class="fil0" d="M206.827 59.1574c-0.9968,0.1637 -1.4776,0.0265 -1.6761,-0.2854 -0.197,-0.3092 -0.1101,-0.779 0.5364,-1.5694 1.607,-1.1476 3.2409,-2.2503 4.9423,-3.235 1.7039,-0.9863 3.4847,-1.8431 5.309,-2.629 1.078,-0.2284 1.5697,-0.1276 1.7424,0.1658 0.1722,0.2927 0.0386,0.7567 -0.6738,1.5663 -1.5835,1.1794 -3.2138,2.2856 -4.9163,3.2745 -1.7022,0.9888 -3.466,1.8783 -5.2639,2.7122z"/>
    <path id="_55018240" class="fil0" d="M217.184 57.3441c0.6403,0.7814 0.7618,1.2664 0.591,1.5943 -0.1694,0.3252 -0.6197,0.4848 -1.6274,0.3202 -1.7974,-0.818 -3.5693,-1.6817 -5.2727,-2.6627 -1.7062,-0.9825 -3.3386,-2.0964 -4.9313,-3.2832 -0.7368,-0.8194 -0.8954,-1.2957 -0.7276,-1.592 0.1673,-0.2954 0.636,-0.4117 1.6933,-0.1995 1.8131,0.7816 3.5863,1.6404 5.2939,2.6203 1.7074,0.9798 3.3597,2.0625 4.9808,3.2026z"/>
   </g>
  </g>
 </g>
</svg>
